<svg width="55" height="15" viewBox="0 0 55 15" fill="none" xmlns="http://www.w3.org/2000/svg">
<path d="M9.548 6.296L3.842 8.528V8.564L9.548 10.796V13.244L0.44 9.68V7.412L9.548 3.848V6.296ZM16.8905 1.256H21.6425C22.1945 1.256 22.7465 1.298 23.2985 1.382C23.8625 1.454 24.3665 1.61 24.8105 1.85C25.2545 2.078 25.6145 2.402 25.8905 2.822C26.1665 3.242 26.3045 3.8 26.3045 4.496C26.3045 5.216 26.1005 5.816 25.6925 6.296C25.2965 6.764 24.7685 7.1 24.1085 7.304V7.34C24.5285 7.4 24.9065 7.52 25.2425 7.7C25.5905 7.868 25.8845 8.09 26.1245 8.366C26.3765 8.63 26.5685 8.942 26.7005 9.302C26.8325 9.662 26.8985 10.046 26.8985 10.454C26.8985 11.126 26.7545 11.69 26.4665 12.146C26.1785 12.59 25.8065 12.95 25.3505 13.226C24.8945 13.502 24.3785 13.7 23.8025 13.82C23.2385 13.94 22.6745 14 22.1105 14H16.8905V1.256ZM19.6985 6.35H21.7325C21.9485 6.35 22.1585 6.326 22.3625 6.278C22.5785 6.23 22.7705 6.152 22.9385 6.044C23.1065 5.936 23.2385 5.792 23.3345 5.612C23.4425 5.432 23.4965 5.216 23.4965 4.964C23.4965 4.7 23.4365 4.484 23.3165 4.316C23.2085 4.136 23.0645 3.998 22.8845 3.902C22.7045 3.806 22.5005 3.74 22.2725 3.704C22.0445 3.656 21.8225 3.632 21.6065 3.632H19.6985V6.35ZM19.6985 11.624H22.2185C22.4345 11.624 22.6505 11.6 22.8665 11.552C23.0945 11.504 23.2985 11.42 23.4785 11.3C23.6585 11.18 23.8025 11.024 23.9105 10.832C24.0305 10.64 24.0905 10.406 24.0905 10.13C24.0905 9.83 24.0125 9.59 23.8565 9.41C23.7125 9.218 23.5265 9.074 23.2985 8.978C23.0705 8.882 22.8245 8.816 22.5605 8.78C22.2965 8.744 22.0505 8.726 21.8225 8.726H19.6985V11.624ZM33.3503 12.902H33.3143C33.0143 13.37 32.6123 13.706 32.1083 13.91C31.6163 14.114 31.0943 14.216 30.5423 14.216C30.1343 14.216 29.7383 14.156 29.3543 14.036C28.9823 13.928 28.6523 13.76 28.3643 13.532C28.0763 13.304 27.8483 13.022 27.6803 12.686C27.5123 12.35 27.4283 11.96 27.4283 11.516C27.4283 11.012 27.5183 10.586 27.6983 10.238C27.8903 9.89 28.1423 9.602 28.4543 9.374C28.7783 9.146 29.1443 8.972 29.5523 8.852C29.9603 8.72 30.3803 8.624 30.8123 8.564C31.2563 8.504 31.6943 8.468 32.1263 8.456C32.5703 8.444 32.9783 8.438 33.3503 8.438C33.3503 7.958 33.1763 7.58 32.8283 7.304C32.4923 7.016 32.0903 6.872 31.6223 6.872C31.1783 6.872 30.7703 6.968 30.3983 7.16C30.0383 7.34 29.7143 7.592 29.4263 7.916L27.9863 6.44C28.4903 5.972 29.0783 5.624 29.7503 5.396C30.4223 5.156 31.1183 5.036 31.8383 5.036C32.6303 5.036 33.2783 5.138 33.7823 5.342C34.2983 5.534 34.7063 5.822 35.0063 6.206C35.3183 6.59 35.5343 7.064 35.6543 7.628C35.7743 8.18 35.8343 8.822 35.8343 9.554V14H33.3503V12.902ZM32.6843 10.166C32.4803 10.166 32.2223 10.178 31.9103 10.202C31.6103 10.214 31.3163 10.262 31.0283 10.346C30.7523 10.43 30.5123 10.556 30.3083 10.724C30.1163 10.892 30.0203 11.126 30.0203 11.426C30.0203 11.75 30.1583 11.99 30.4343 12.146C30.7103 12.302 30.9983 12.38 31.2983 12.38C31.5623 12.38 31.8143 12.344 32.0543 12.272C32.3063 12.2 32.5283 12.098 32.7203 11.966C32.9123 11.834 33.0623 11.666 33.1703 11.462C33.2903 11.258 33.3503 11.018 33.3503 10.742V10.166H32.6843ZM43.0903 8.078C42.9583 7.886 42.7723 7.73 42.5323 7.61C42.2923 7.478 42.0343 7.412 41.7583 7.412C41.0743 7.412 40.5403 7.616 40.1563 8.024C39.7843 8.432 39.5983 8.966 39.5983 9.626C39.5983 10.286 39.7843 10.82 40.1563 11.228C40.5403 11.636 41.0743 11.84 41.7583 11.84C42.0583 11.84 42.3163 11.774 42.5323 11.642C42.7483 11.51 42.9343 11.354 43.0903 11.174L44.8723 13.046C44.4523 13.478 43.9543 13.784 43.3783 13.964C42.8143 14.132 42.2743 14.216 41.7583 14.216C41.0863 14.216 40.4503 14.108 39.8503 13.892C39.2623 13.676 38.7463 13.37 38.3023 12.974C37.8703 12.566 37.5283 12.08 37.2763 11.516C37.0243 10.952 36.8983 10.322 36.8983 9.626C36.8983 8.93 37.0243 8.3 37.2763 7.736C37.5283 7.172 37.8703 6.692 38.3023 6.296C38.7463 5.888 39.2623 5.576 39.8503 5.36C40.4503 5.144 41.0863 5.036 41.7583 5.036C42.2743 5.036 42.8143 5.126 43.3783 5.306C43.9543 5.474 44.4523 5.774 44.8723 6.206L43.0903 8.078ZM45.4919 0.391999H48.1919V8.708L51.1799 5.252H54.4919L51.0179 9.194L54.5819 14H51.1799L48.2279 9.572H48.1919V14H45.4919V0.391999Z" fill="white"/>
</svg>
