<svg width="25" height="24" viewBox="0 0 25 24" fill="none" xmlns="http://www.w3.org/2000/svg">
<g id="cart-outline" clip-path="url(#clip0_279_3919)">
<path id="Vector" d="M14.9531 17.6299C15.4836 17.6299 15.9923 17.8406 16.3673 18.2157C16.7424 18.5907 16.9531 19.0994 16.9531 19.6299C16.9531 20.1603 16.7424 20.669 16.3673 21.0441C15.9923 21.4192 15.4836 21.6299 14.9531 21.6299C13.8431 21.6299 12.9531 20.7299 12.9531 19.6299C12.9531 18.5199 13.8431 17.6299 14.9531 17.6299ZM-1.04688 1.62988H2.22312L3.16313 3.62988H17.9531C18.2183 3.62988 18.4727 3.73524 18.6602 3.92278C18.8478 4.11031 18.9531 4.36467 18.9531 4.62988C18.9531 4.79988 18.9031 4.96988 18.8331 5.12988L15.2531 11.5999C14.9131 12.2099 14.2531 12.6299 13.5031 12.6299H6.05313L5.15312 14.2599L5.12313 14.3799C5.12313 14.4462 5.14946 14.5098 5.19635 14.5567C5.24323 14.6035 5.30682 14.6299 5.37313 14.6299H16.9531V16.6299H4.95312C3.84312 16.6299 2.95312 15.7299 2.95312 14.6299C2.95312 14.2799 3.04312 13.9499 3.19312 13.6699L4.55312 11.2199L0.953125 3.62988H-1.04688V1.62988ZM4.95312 17.6299C5.48356 17.6299 5.99227 17.8406 6.36734 18.2157C6.74241 18.5907 6.95312 19.0994 6.95312 19.6299C6.95312 20.1603 6.74241 20.669 6.36734 21.0441C5.99227 21.4192 5.48356 21.6299 4.95312 21.6299C3.84312 21.6299 2.95312 20.7299 2.95312 19.6299C2.95312 18.5199 3.84312 17.6299 4.95312 17.6299ZM13.9531 10.6299L16.7331 5.62988H4.09312L6.45312 10.6299H13.9531Z" fill="white"/>
</g>
<defs>
<clipPath id="clip0_279_3919">
<rect width="24" height="24" fill="white" transform="translate(0.15625)"/>
</clipPath>
</defs>
</svg>
