<?xml version="1.0" encoding="utf-8"?>
<!-- Generator: Adobe Illustrator 27.9.0, SVG Export Plug-In . SVG Version: 6.00 Build 0)  -->
<svg version="1.1" id="Layer_1" xmlns="http://www.w3.org/2000/svg" xmlns:xlink="http://www.w3.org/1999/xlink" x="0px" y="0px"
	 viewBox="0 0 46.7 43.9" style="enable-background:new 0 0 46.7 43.9;" xml:space="preserve">
<style type="text/css">
	.st0{fill:#FFFFFF;}
</style>
<path class="st0" d="M12.5,26.8c4,0,4.7,1.5,4.8,1.7c0.1,0.4,0.4,0.7,0.9,0.7h10.1c0.7,0,1.3,0.6,1.4,1.3c0,0.7-0.5,1.3-1.2,1.4
	L20,32.9c-0.5,0-0.9,0.5-0.8,1c0,0.5,0.5,0.9,1,0.8l0,0h0.1l8.4-1.2c1.7-0.2,2.9-1.8,2.6-3.5c-0.2-1.5-1.5-2.7-3.1-2.7h-9.6
	c-0.6-0.9-2.1-2.3-6.2-2.3c-3.1-0.1-6,1.6-7.4,4.4l-4.8,3.7C0,33.4-0.1,34,0.2,34.4s0.9,0.5,1.2,0.2l0,0l4.9-3.8
	c0.1-0.1,0.2-0.2,0.3-0.4C7.7,28.1,10,26.7,12.5,26.8z"/>
<path class="st0" d="M41.2,23.8l-8.5,4.3c-0.4,0.3-0.6,0.8-0.3,1.2c0.2,0.4,0.7,0.5,1.1,0.4l8.5-4.3c1-0.5,2.2-0.1,2.7,0.9
	c0.4,0.9,0.2,1.9-0.6,2.5l-11,8.1c-1.6,1.1-3.4,1.8-5.4,1.8H13.1c-0.2,0-0.3,0.1-0.5,0.1l-5.5,3.6c-0.4,0.2-0.6,0.8-0.4,1.2
	c0.2,0.3,0.5,0.5,0.9,0.5c0.2,0,0.3,0,0.5-0.1l5.2-3.4h14.4c2.3,0,4.6-0.8,6.4-2.1l11-8.1c1.7-1.2,2-3.6,0.8-5.3
	C44.9,23.4,42.9,22.9,41.2,23.8L41.2,23.8z"/>
<path class="st0" d="M19.9,12.4c1.4,1.9,2.4,4.1,3,6.4c-0.4,1-0.7,2.1-0.7,3.1c0,0.5,0.4,0.9,0.8,0.9c0,0,0,0,0,0l0,0
	c0.5,0,0.9-0.4,0.9-0.9c0.2-1.8,0.9-3.5,1.9-5c2.4-3.7,6.7-6.7,12.4-8.6c0.5-0.2,0.7-0.6,0.6-1.1c0,0,0,0,0,0
	c-0.2-0.5-0.7-0.7-1.1-0.6c0,0,0,0,0,0c-3.7,1.2-7.1,3-10,5.5c0.2-2.5,1.1-6.5,4.1-8.7s7.4-2.2,13.2,0c-0.1,1.8-0.8,7.3-4.5,10.8
	c-2.4,2.3-5.8,3.3-10,3c-0.5,0-0.9,0.3-0.9,0.8c0,0.5,0.3,0.9,0.8,0.9c0,0,0,0,0,0c0.5,0,1,0,1.4,0c3.6,0.1,7.2-1.1,9.9-3.6
	c5-4.7,5.1-12.4,5-12.7c0-0.3-0.2-0.7-0.5-0.8c-6.7-2.6-11.9-2.6-15.5,0c-4.8,3.5-4.9,10.3-4.9,12c-0.6,0.7-1.1,1.4-1.5,2.1
	l-0.2,0.3c-0.6-1.7-1.5-3.4-2.6-4.9c0.4-1.2,1.2-4.8-0.8-7.8c-1.6-2.4-4.7-3.6-9-3.8c-0.5,0-0.8,0.3-0.9,0.8
	c-0.3,2.8,0.5,5.6,2.1,7.9C14.7,10.8,17.2,12.2,19.9,12.4z M19.2,4.7c1.4,2,1,4.7,0.7,5.9c-2.2-0.3-4.2-1.3-5.6-3
	c-1.2-1.7-1.9-3.7-1.8-5.8C15.8,2,18,3,19.2,4.7z"/>
</svg>
