<svg width="24" height="24" viewBox="0 0 24 24" fill="none" xmlns="http://www.w3.org/2000/svg">
<path d="M4 21C4 20.4477 4.44772 20 5 20H19C19.5523 20 20 20.4477 20 21C20 21.5523 19.5523 22 19 22H5C4.44772 22 4 21.5523 4 21Z" fill="white"/>
<path fill-rule="evenodd" clip-rule="evenodd" d="M16.6535 4.58835C15.8724 3.8073 14.6061 3.8073 13.8251 4.58835L6.91897 11.4944L6.00116 15.9981L10.5047 15.0802L17.4108 8.17414C18.1919 7.39309 18.1919 6.12675 17.4108 5.3457L16.6535 4.58835ZM12.4108 3.17413C13.9729 1.61204 16.5056 1.61204 18.0677 3.17413L18.825 3.93149C20.3871 5.49359 20.3871 8.02626 18.825 9.58835L11.919 16.4944C11.6415 16.7718 11.2886 16.9615 10.9042 17.0399L6.40059 17.9578C4.99604 18.2441 3.7552 17.0033 4.04144 15.5987L4.95925 11.095C5.0376 10.7106 5.22731 10.3576 5.50476 10.0802L12.4108 3.17413Z" fill="white"/>
</svg>
