<svg xmlns="http://www.w3.org/2000/svg" width="27" height="24" viewBox="0 0 27 24" fill="none">
<path d="M13.5 24L12.1163 22.7885C9.73647 20.6686 7.76903 18.8398 6.21392 17.3022C4.65881 15.7647 3.42 14.3902 2.4975 13.1787C1.575 11.9673 0.928125 10.8704 0.556875 9.88813C0.185625 8.90587 0 7.91269 0 6.90859C0 4.94068 0.680625 3.29728 2.04188 1.97838C3.40313 0.659459 5.085 0 7.0875 0C8.37 0 9.55688 0.294679 10.6481 0.884038C11.7394 1.4734 12.69 2.32469 13.5 3.43793C14.445 2.25921 15.4463 1.39154 16.5037 0.834925C17.5613 0.278308 18.6975 0 19.9125 0C21.915 0 23.5969 0.659459 24.9581 1.97838C26.3194 3.29728 27 4.94068 27 6.90859C27 7.91269 26.8144 8.90587 26.4431 9.88813C26.0719 10.8704 25.425 11.9673 24.5025 13.1787C23.58 14.3902 22.3412 15.7647 20.7861 17.3022C19.231 18.8398 17.2635 20.6686 14.8838 22.7885L13.5 24ZM13.5 21.4134C15.7778 19.3835 17.6523 17.6427 19.1234 16.1911C20. " fill="red"/>
</svg>