<svg width="27" height="24" viewBox="0 0 27 24" fill="none" xmlns="http://www.w3.org/2000/svg">
<path d="M13.5 24L12.1163 22.7885C9.73647 20.6686 7.76903 18.8398 6.21392 17.3022C4.65881 15.7647 3.42 14.3902 2.4975 13.1787C1.575 11.9673 0.928125 10.8704 0.556875 9.88813C0.185625 8.90587 0 7.91269 0 6.90859C0 4.94068 0.680625 3.29728 2.04188 1.97838C3.40313 0.659459 5.085 0 7.0875 0C8.37 0 9.55688 0.294679 10.6481 0.884038C11.7394 1.4734 12.69 2.32469 13.5 3.43793C14.445 2.25921 15.4463 1.39154 16.5037 0.834925C17.5613 0.278308 18.6975 0 19.9125 0C21.915 0 23.5969 0.659459 24.9581 1.97838C26.3194 3.29728 27 4.94068 27 6.90859C27 7.91269 26.8144 8.90587 26.4431 9.88813C26.0719 10.8704 25.425 11.9673 24.5025 13.1787C23.58 14.3902 22.3412 15.7647 20.7861 17.3022C19.231 18.8398 17.2635 20.6686 14.8838 22.7885L13.5 24ZM13.5 21.4134C15.7778 19.3835 17.6523 17.6427 19.1234 16.1911C20.5945 14.7394 21.7631 13.4679 22.6294 12.3765C23.4956 11.2851 24.1031 10.3123 24.4519 9.45806C24.8006 8.6038 24.975 7.75556 24.975 6.91334C24.975 5.46952 24.5025 4.28377 23.5575 3.35607C22.6125 2.42838 21.4 1.96453 19.9201 1.96453C18.7608 1.96453 17.6878 2.30832 16.7012 2.99591C15.7146 3.68349 14.9175 4.64939 14.31 5.89359H12.6563C12.0713 4.67121 11.2854 3.71078 10.2988 3.01228C9.31217 2.31378 8.2392 1.96453 7.07991 1.96453C5.59997 1.96453 4.3875 2.42838 3.4425 3.35607C2.4975 4.28377 2.025 5.47139 2.025 6.91894C2.025 7.76334 2.19938 8.61664 2.54813 9.47885C2.89688 10.3411 3.50438 11.3233 4.37063 12.4256C5.23688 13.528 6.4125 14.7995 7.8975 16.2401C9.3825 17.6808 11.25 19.4052 13.5 21.4134Z" fill="black"/>
</svg>
