<svg xmlns="http://www.w3.org/2000/svg" width="44" height="46" viewBox="0 0 44 46" fill="none">
<path d="M38 20.9091H44V25.0909H38V20.9091ZM0 20.9091H6V25.0909H0V20.9091ZM24 0V6.27273H20V0H24ZM7.84 5.22727L12.1 9.70182L9.26 12.65L5 8.21727L7.84 5.22727ZM31.9 9.68091L36.14 5.22727L39 8.21727L34.74 12.65L31.9 9.68091ZM22 10.4545C25.1826 10.4545 28.2348 11.7763 30.4853 14.129C32.7357 16.4818 34 19.6727 34 23C34 27.6418 31.58 31.6982 28 33.8727V37.6364C28 38.1909 27.7893 38.7227 27.4142 39.1149C27.0391 39.507 26.5304 39.7273 26 39.7273H18C17.4696 39.7273 16.9609 39.507 16.5858 39.1149C16.2107 38.7227 16 38.1909 16 37.6364V33.8727C12.42 31.6982 10 27.6418 10 23C10 19.6727 11.2643 16.4818 13.5147 14.129C15.7652 11.7763 18.8174 10.4545 22 10.4545ZM26 41.8182V43.9091C26 44.4636 25.7893 44.9955 25.4142 45.3876C25.0391 45.7797 24.5304 46 24 46H20C19.4696 46 18.9609 45.7797 18.5858 45.3876C18.2107 44.9955 18 44.4636 18 43.9091V41.8182H26ZM20 35.5455H24V31.0918C27.46 30.1718 30 26.8891 30 23C30 20.7818 29.1571 18.6545 27.6569 17.086C26.1566 15.5175 24.1217 14.6364 22 14.6364C19.8783 14.6364 17.8434 15.5175 16.3431 17.086C14.8429 18.6545 14 20.7818 14 23C14 26.8891 16.54 30.1718 20 31.0918V35.5455Z" fill="#005EEE"/>
</svg>