<svg width="22" height="24" viewBox="0 0 22 24" fill="none" xmlns="http://www.w3.org/2000/svg">
<path d="M19 10.9091H22V13.0909H19V10.9091ZM0 10.9091H3V13.0909H0V10.9091ZM12 0V3.27273H10V0H12ZM3.92 2.72727L6.05 5.06182L4.63 6.6L2.5 4.28727L3.92 2.72727ZM15.95 5.05091L18.07 2.72727L19.5 4.28727L17.37 6.6L15.95 5.05091ZM11 5.45455C12.5913 5.45455 14.1174 6.14415 15.2426 7.37167C16.3679 8.59918 17 10.264 17 12C17 14.4218 15.79 16.5382 14 17.6727V19.6364C14 19.9257 13.8946 20.2032 13.7071 20.4078C13.5196 20.6123 13.2652 20.7273 13 20.7273H9C8.73478 20.7273 8.48043 20.6123 8.29289 20.4078C8.10536 20.2032 8 19.9257 8 19.6364V17.6727C6.21 16.5382 5 14.4218 5 12C5 10.264 5.63214 8.59918 6.75736 7.37167C7.88258 6.14415 9.4087 5.45455 11 5.45455ZM13 21.8182V22.9091C13 23.1984 12.8946 23.4759 12.7071 23.6805C12.5196 23.8851 12.2652 24 12 24H10C9.73478 24 9.48043 23.8851 9.29289 23.6805C9.10536 23.4759 9 23.1984 9 22.9091V21.8182H13ZM10 18.5455H12V16.2218C13.73 15.7418 15 14.0291 15 12C15 10.8427 14.5786 9.73278 13.8284 8.91444C13.0783 8.0961 12.0609 7.63636 11 7.63636C9.93913 7.63636 8.92172 8.0961 8.17157 8.91444C7.42143 9.73278 7 10.8427 7 12C7 14.0291 8.27 15.7418 10 16.2218V18.5455Z" fill="#005EEE"/>
</svg>
