<svg width="56" height="14" viewBox="0 0 56 14" fill="none" xmlns="http://www.w3.org/2000/svg">
<path d="M0.365916 0.256H4.18192L9.59992 9.112H9.63592V0.256H12.4439V13H8.77192L3.20992 3.928H3.17392V13H0.365916V0.256ZM22.6216 11.488C22.1896 12.04 21.6436 12.466 20.9836 12.766C20.3236 13.066 19.6396 13.216 18.9317 13.216C18.2596 13.216 17.6236 13.108 17.0236 12.892C16.4356 12.676 15.9196 12.37 15.4756 11.974C15.0436 11.566 14.7016 11.08 14.4496 10.516C14.1976 9.952 14.0716 9.322 14.0716 8.626C14.0716 7.93 14.1976 7.3 14.4496 6.736C14.7016 6.172 15.0436 5.692 15.4756 5.296C15.9196 4.888 16.4356 4.576 17.0236 4.36C17.6236 4.144 18.2596 4.036 18.9317 4.036C19.5556 4.036 20.1196 4.144 20.6236 4.36C21.1396 4.576 21.5717 4.888 21.9197 5.296C22.2796 5.692 22.5556 6.172 22.7477 6.736C22.9396 7.3 23.0356 7.93 23.0356 8.626V9.472H16.7716C16.8796 9.988 17.1136 10.402 17.4736 10.714C17.8336 11.014 18.2776 11.164 18.8057 11.164C19.2497 11.164 19.6216 11.068 19.9216 10.876C20.2336 10.672 20.5037 10.414 20.7316 10.102L22.6216 11.488ZM20.3356 7.636C20.3476 7.18 20.1977 6.79 19.8857 6.466C19.5736 6.142 19.1716 5.98 18.6796 5.98C18.3796 5.98 18.1156 6.028 17.8876 6.124C17.6596 6.22 17.4616 6.346 17.2936 6.502C17.1376 6.646 17.0116 6.82 16.9156 7.024C16.8316 7.216 16.7836 7.42 16.7716 7.636H20.3356ZM26.6756 8.32L23.7596 4.252H26.9456L28.4936 6.628L29.9876 4.252H32.9936L30.1496 8.32L33.5156 13H30.3296L28.4216 10.084L26.3696 13H23.2196L26.6756 8.32ZM39.9175 6.412H37.5415V9.328C37.5415 9.568 37.5535 9.79 37.5775 9.994C37.6015 10.186 37.6555 10.354 37.7395 10.498C37.8235 10.642 37.9495 10.756 38.1175 10.84C38.2975 10.912 38.5315 10.948 38.8195 10.948C38.9635 10.948 39.1495 10.936 39.3775 10.912C39.6175 10.876 39.7975 10.804 39.9175 10.696V12.946C39.6175 13.054 39.3055 13.126 38.9815 13.162C38.6575 13.198 38.3395 13.216 38.0275 13.216C37.5715 13.216 37.1515 13.168 36.7675 13.072C36.3835 12.976 36.0475 12.826 35.7595 12.622C35.4715 12.406 35.2435 12.13 35.0755 11.794C34.9195 11.458 34.8415 11.05 34.8415 10.57V6.412H33.1135V4.252H34.8415V1.66H37.5415V4.252H39.9175V6.412ZM46.3818 9.796L52.0878 7.564V7.528L46.3818 5.296V2.848L55.4898 6.412V8.68L46.3818 12.244V9.796Z" fill="white"/>
</svg>
