<svg xmlns="http://www.w3.org/2000/svg" width="20" height="20" viewBox="0 0 20 20" fill="none">
  <path d="M2 4.84444C2 3.8488 2 3.35097 2.19377 2.97068C2.36421 2.63617 2.63617 2.36421 2.97068 2.19377C3.35097 2 3.8488 2 4.84444 2H5.37778C6.37343 2 6.87125 2 7.25154 2.19377C7.58605 2.36421 7.85801 2.63617 8.02846 2.97068C8.22222 3.35097 8.22222 3.8488 8.22222 4.84444V5.37778C8.22222 6.37343 8.22222 6.87125 8.02846 7.25154C7.85801 7.58605 7.58605 7.85801 7.25154 8.02846C6.87125 8.22222 6.37343 8.22222 5.37778 8.22222H4.84444C3.8488 8.22222 3.35097 8.22222 2.97068 8.02846C2.63617 7.85801 2.36421 7.58605 2.19377 7.25154C2 6.87125 2 6.37343 2 5.37778V4.84444Z" stroke="white" stroke-width="2" stroke-linecap="round" stroke-linejoin="round"/>
  <path d="M2 14.6222C2 13.6266 2 13.1287 2.19377 12.7485C2.36421 12.414 2.63617 12.142 2.97068 11.9715C3.35097 11.7778 3.8488 11.7778 4.84444 11.7778H5.37778C6.37343 11.7778 6.87125 11.7778 7.25154 11.9715C7.58605 12.142 7.85801 12.414 8.02846 12.7485C8.22222 13.1287 8.22222 13.6266 8.22222 14.6222V15.1556C8.22222 16.1512 8.22222 16.649 8.02846 17.0293C7.85801 17.3638 7.58605 17.6358 7.25154 17.8062C6.87125 18 6.37343 18 5.37778 18H4.84444C3.8488 18 3.35097 18 2.97068 17.8062C2.63617 17.6358 2.36421 17.3638 2.19377 17.0293C2 16.649 2 16.1512 2 15.1556V14.6222Z" stroke="white" stroke-width="2" stroke-linecap="round" stroke-linejoin="round"/>
  <path d="M11.7778 4.84444C11.7778 3.8488 11.7778 3.35097 11.9715 2.97068C12.142 2.63617 12.414 2.36421 12.7485 2.19377C13.1287 2 13.6266 2 14.6222 2H15.1556C16.1512 2 16.649 2 17.0293 2.19377C17.3638 2.36421 17.6358 2.63617 17.8062 2.97068C18 3.35097 18 3.8488 18 4.84444V5.37778C18 6.37343 18 6.87125 17.8062 7.25154C17.6358 7.58605 17.3638 7.85801 17.0293 8.02846C16.649 8.22222 16.1512 8.22222 15.1556 8.22222H14.6222C13.6266 8.22222 13.1287 8.22222 12.7485 8.02846C12.414 7.85801 12.142 7.58605 11.9715 7.25154C11.7778 6.87125 11.7778 6.37343 11.7778 5.37778V4.84444Z" stroke="white" stroke-width="2" stroke-linecap="round" stroke-linejoin="round"/>
  <path d="M11.7778 14.6222C11.7778 13.6266 11.7778 13.1287 11.9715 12.7485C12.142 12.414 12.414 12.142 12.7485 11.9715C13.1287 11.7778 13.6266 11.7778 14.6222 11.7778H15.1556C16.1512 11.7778 16.649 11.7778 17.0293 11.9715C17.3638 12.142 17.6358 12.414 17.8062 12.7485C18 13.1287 18 13.6266 18 14.6222V15.1556C18 16.1512 18 16.649 17.8062 17.0293C17.6358 17.3638 17.3638 17.6358 17.0293 17.8062C16.649 18 16.1512 18 15.1556 18H14.6222C13.6266 18 13.1287 18 12.7485 17.8062C12.414 17.6358 12.142 17.3638 11.9715 17.0293C11.7778 16.649 11.7778 16.1512 11.7778 15.1556V14.6222Z" stroke="white" stroke-width="2" stroke-linecap="round" stroke-linejoin="round"/>
</svg>