<?xml version="1.0" encoding="utf-8"?>
<!-- Generator: Adobe Illustrator 27.9.0, SVG Export Plug-In . SVG Version: 6.00 Build 0)  -->
<svg version="1.1"
	 id="Layer_1" xmlns:dc="http://purl.org/dc/elements/1.1/" xmlns:cc="http://creativecommons.org/ns#" xmlns:rdf="http://www.w3.org/1999/02/22-rdf-syntax-ns#" xmlns:svg="http://www.w3.org/2000/svg" xmlns:sodipodi="http://sodipodi.sourceforge.net/DTD/sodipodi-0.dtd" xmlns:inkscape="http://www.inkscape.org/namespaces/inkscape"
	 xmlns="http://www.w3.org/2000/svg" xmlns:xlink="http://www.w3.org/1999/xlink" x="0px" y="0px" viewBox="0 0 90.4 88"
	 style="enable-background:new 0 0 90.4 88;" xml:space="preserve">
<style type="text/css">
	.st0{fill:#FFFFFF;}
</style>
<g transform="translate(0,-952.36218)">
	<path class="st0" d="M14,952.4c-3.3,0-6,2.7-6,6v11H4c-2.2,0-4,1.8-4,4v14c0,2.2,1.8,4,4,4h4v35c0,1.1,0.9,2,2,2h2v6
		c0,3.3,2.7,6,6,6h4c3.3,0,6-2.7,6-6v-6h34v6c0,3.3,2.7,6,6,6h4c3.3,0,6-2.7,6-6v-6h2c1.1,0,2-0.9,2-2v-35h4c2.2,0,4-1.8,4-4v-14
		c0-2.2-1.8-4-4-4h-4v-11c0-3.3-2.7-6-6-6H14z M14,956.4h62c1.1,0,2,0.9,2,2v4H12v-4C12,957.2,12.9,956.4,14,956.4z M12,966.4h31v28
		H12V966.4z M47,966.4h31v28H47V966.4z M4,973.4h4v14H4V973.4z M82,973.4h4v14h-4V973.4z M12,998.4h66v26H12V998.4z M23,1004.4
		c-3.8,0-7,3.2-7,7s3.2,7,7,7s7-3.2,7-7S26.8,1004.4,23,1004.4z M67,1004.4c-3.8,0-7,3.2-7,7s3.2,7,7,7s7-3.2,7-7
		S70.8,1004.4,67,1004.4z M23,1008.4c1.7,0,3,1.3,3,3s-1.3,3-3,3s-3-1.3-3-3S21.3,1008.4,23,1008.4z M67,1008.4c1.7,0,3,1.3,3,3
		s-1.3,3-3,3s-3-1.3-3-3S65.3,1008.4,67,1008.4z M35,1009.4c-1.1,0-2,0.9-2,2v8c0,1.1,0.9,2,2,2h20c1.1,0,2-0.9,2-2v-8
		c0-1.1-0.9-2-2-2H35z M37,1013.4h16v4H37V1013.4z M16,1028.4h8v6c0,1.1-0.9,2-2,2h-4c-1.1,0-2-0.9-2-2V1028.4z M66,1028.4h8v6
		c0,1.1-0.9,2-2,2h-4c-1.1,0-2-0.9-2-2V1028.4z"/>
</g>
</svg>
