<svg xmlns="http://www.w3.org/2000/svg" width="20" height="20" viewBox="0 0 20 20" fill="none">
  <g clip-path="url(#clip0_471_7061)">
    <path d="M3.51787 9.99999H16.4808M3.51787 9.99999V14.6296C3.51787 15.926 3.51787 16.5742 3.77017 17.0694C3.9921 17.505 4.34622 17.8591 4.78178 18.081C5.27694 18.3333 5.92515 18.3333 7.22157 18.3333H12.7771C14.0735 18.3333 14.7218 18.3333 15.2169 18.081C15.6525 17.8591 16.0066 17.505 16.2285 17.0694C16.4808 16.5742 16.4808 15.926 16.4808 14.6296V9.99999M3.51787 9.99999C3.25984 9.99999 3.13083 9.99999 3.02262 9.98489C2.32593 9.88771 1.77829 9.34007 1.68111 8.64338C1.66602 8.53517 1.66602 8.40616 1.66602 8.14814C1.66602 7.89011 1.66602 7.7611 1.68111 7.65289C1.77829 6.9562 2.32593 6.40856 3.02262 6.31138C3.13083 6.29629 3.25984 6.29629 3.51787 6.29629H16.4808C16.7389 6.29629 16.8679 6.29629 16.9761 6.31138C17.6728 6.40856 18.2204 6.9562 18.3176 7.65289C18.3327 7.7611 18.3327 7.89011 18.3327 8.14814C18.3327 8.40616 18.3327 8.53517 18.3176 8.64338C18.2204 9.34007 17.6728 9.88771 16.9761 9.98489C16.8679 9.99999 16.7389 9.99999 16.4808 9.99999M9.99935 6.29629H12.3142C13.5926 6.29629 14.629 5.25991 14.629 3.98147C14.629 2.70303 13.5926 1.66666 12.3142 1.66666C11.0357 1.66666 9.99935 2.70303 9.99935 3.98147M9.99935 6.29629V3.98147M9.99935 6.29629L9.99935 18.3333M9.99935 6.29629H7.68453C6.4061 6.29629 5.36972 5.25991 5.36972 3.98147C5.36972 2.70303 6.4061 1.66666 7.68453 1.66666C8.96297 1.66666 9.99935 2.70303 9.99935 3.98147" stroke="white" stroke-width="2" stroke-linecap="round" stroke-linejoin="round"/>
  </g>
  <defs>
    <clipPath id="clip0_471_7061">
      <rect width="20" height="20" fill="white"/>
    </clipPath>
  </defs>
</svg>