<?xml version="1.0" encoding="utf-8"?>
<!-- Generator: Adobe Illustrator 28.0.0, SVG Export Plug-In . SVG Version: 6.00 Build 0)  -->
<svg version="1.1" id="Layer_1" xmlns="http://www.w3.org/2000/svg" xmlns:xlink="http://www.w3.org/1999/xlink" x="0px" y="0px"
	 viewBox="0 0 55.9 59.5" style="enable-background:new 0 0 55.9 59.5;" xml:space="preserve">
<style type="text/css">
	.st0{fill:#FFFFFF;}
</style>
<g>
	<g>
		<path class="st0" d="M37.7,21.9c0-5.5-8.6-20.2-9-20.9c-0.4-0.6-1.4-0.6-1.7,0c-0.4,0.6-9,15.3-9,20.9c0,5.9,4.4,10.6,9.9,10.6
			S37.7,27.7,37.7,21.9z M27.9,30.5c-4.3,0-7.9-3.9-7.9-8.6c0-3.7,5.1-13.4,7.9-18.4c2.8,4.9,7.9,14.6,7.9,18.4
			C35.7,26.6,32.2,30.5,27.9,30.5z"/>
		<path class="st0" d="M27.3,26.9c-2,0-3.7-2-3.7-4.4c0-0.6-0.4-1-1-1s-1,0.4-1,1c0,3.5,2.6,6.4,5.7,6.4c0.6,0,1-0.4,1-1
			S27.8,26.9,27.3,26.9z"/>
		<path class="st0" d="M17.2,34.1c-0.6-0.5-1-0.9-1.4-1.2c-0.6-0.5-1.3-0.7-2-0.4c-0.7,0.3-1.2,0.9-1.2,1.6c-0.1,1.2,0,2.5,0.5,3.7
			c0.5,1.4,1.4,2.9,2.2,4c-0.8-0.3-1.7-0.7-2.8-1.2c-0.9-0.4-1.5-1-2.2-2.1c0.2-1.5,0.8-7.2,0.8-9c0-1.7-0.8-2.5-1.6-2.7
			c-0.9-0.2-1.8,0.3-2.3,1.3c-0.3,0.7-0.6,1.4-0.9,2.2c-0.4-1-0.8-1.7-1.2-2.1C4,27.2,2.7,27,1.6,27.5C0.6,28,0,29,0.1,30.2
			C0.7,35.5,4,44.3,9.4,47.4c6.3,3.6,5.7,10.7,5.6,11c0,0.3,0.1,0.6,0.2,0.8c0.2,0.2,0.5,0.3,0.7,0.3h9.9c0.5,0,1-0.4,1-1
			c0-0.4,0.3-9.3-1.1-13.4C24.1,40,19.9,36.5,17.2,34.1z M8.8,29C8.8,28.9,8.8,28.9,8.8,29c0.1,0.1,0.1,0.3,0.1,0.6
			c0,1.1-0.2,3.7-0.5,5.8C8.2,35,8,34.5,7.8,34.1c-0.1-0.3-0.3-0.6-0.5-1C7.5,32.4,8,30.4,8.8,29z M24.9,57.5H17
			c0-2.5-0.7-8.5-6.7-11.9C5.6,43,2.6,34.7,2.1,30c0-0.4,0.2-0.6,0.4-0.7c0.2-0.1,0.7-0.1,1,0.2l0,0c0.3,0.3,0.9,1.7,1.3,2.7
			C5.2,33.2,5.5,34.1,6,35c2.4,4.7,3.1,6.3,5.4,7.4c3.9,2,6.3,2.1,6.4,2.1c0.4,0,0.8-0.2,1-0.6s0.1-0.8-0.2-1.1c0,0-2.8-2.9-3.8-5.6
			c-0.3-1-0.5-2-0.4-2.9c0.4,0.4,0.9,0.8,1.5,1.3c2.6,2.2,6.5,5.5,8,10.2C24.9,48.8,24.9,55.1,24.9,57.5z"/>
		<path class="st0" d="M54.4,27.5c-1.1-0.5-2.4-0.3-3.3,0.6c-0.3,0.4-0.7,1-1.1,1.9c-0.2-0.6-0.5-1.3-0.9-1.9
			c-0.5-1-1.4-1.5-2.3-1.3c-0.8,0.2-1.6,1-1.6,2.7c0,2,0.6,8.4,0.6,9c-0.7,1.1-1.3,1.6-2.2,2.1c-1.1,0.5-2,0.9-2.8,1.2
			c0.8-1.1,1.7-2.6,2.2-4c0.4-1.3,0.6-2.5,0.5-3.7c-0.1-0.7-0.5-1.4-1.2-1.6c-0.7-0.3-1.5-0.1-2,0.4c-0.4,0.4-0.9,0.8-1.4,1.2
			c-2.7,2.3-6.9,5.9-8.6,11.1c-1.3,4-1.1,13-1.1,13.4c0,0.5,0.5,1,1,1H40c0.3,0,0.6-0.1,0.7-0.3s0.3-0.5,0.3-0.8
			c0-0.3-0.7-7.4,5.6-11c5.4-3.1,8.6-11.9,9.2-17.2C56,29,55.4,28,54.4,27.5z M47.2,29.5c0-0.3,0-0.5,0.1-0.6c0,0,0,0,0,0.1
			c0.8,1.6,1.4,3.3,1.5,3.7c-0.2,0.5-0.4,1-0.6,1.4c-0.2,0.5-0.4,0.9-0.6,1.3C47.4,33.2,47.2,30.6,47.2,29.5z M45.6,45.6
			c-6,3.4-6.7,9.4-6.7,11.9h-7.8c0-2.4,0-8.7,1-11.7c1.6-4.7,5.5-8,8-10.2c0.6-0.5,1.1-0.9,1.4-1.4c0.1,0.9,0,1.9-0.4,2.9
			c-0.9,2.7-3.7,5.6-3.8,5.6c-0.3,0.3-0.4,0.7-0.2,1.1c0.2,0.4,0.6,0.6,1,0.6c0.1,0,2.5-0.1,6.4-2.1c2.3-1.1,3.1-2.7,5.4-7.4
			c0.4-0.8,0.8-1.8,1.2-2.7c0.4-1,1-2.5,1.3-2.7c0.3-0.4,0.7-0.3,1-0.2c0.2,0.1,0.4,0.3,0.4,0.7C53.3,34.7,50.3,42.9,45.6,45.6z"/>
	</g>
</g>
</svg>
