<svg xmlns="http://www.w3.org/2000/svg" width="74" height="74" viewBox="0 0 74 74" fill="none">
  <path d="M36.7762 73.9987C46.9317 73.9987 55.1636 65.7155 55.1636 55.4994C55.1636 45.2833 46.9305 37 36.7762 37C26.6219 37 18.3887 28.7167 18.3887 18.5006C18.3887 8.28452 26.6206 0 36.7762 0C16.4651 0 0 16.5653 0 37C0 57.4347 16.4651 74 36.7762 74V73.9987Z" fill="#91DBF2"/>
  <path d="M37.2214 73.9987C47.377 73.9987 55.6089 65.7155 55.6089 55.4994C55.6089 45.2833 47.3758 37 37.2214 37C27.0671 37 18.834 28.7167 18.834 18.5006C18.834 8.28452 27.0659 0 37.2214 0C57.5326 0 73.9976 16.5653 73.9976 37C73.9976 57.4347 57.5326 74 37.2214 74V73.9987Z" fill="white"/>
</svg>