<svg xmlns="http://www.w3.org/2000/svg" width="66" height="66" viewBox="0 0 66 66" fill="none">
  <path d="M32.8014 66.001C41.8594 66.001 49.2016 58.613 49.2016 49.501C49.2016 40.3891 41.8583 33.0011 32.8014 33.0011C23.7446 33.0011 16.4013 25.613 16.4013 16.5011C16.4013 7.38913 23.7435 0 32.8014 0C14.6855 0 0 14.7749 0 33.0011C0 51.2272 14.6855 66.0021 32.8014 66.0021V66.001Z" fill="#91DBF2"/>
  <path d="M33.199 66.0009C42.2569 66.0009 49.5991 58.6129 49.5991 49.5009C49.5991 40.3889 42.2558 33.0009 33.199 33.0009C24.1421 33.0009 16.7988 25.6129 16.7988 16.501C16.7988 7.38901 24.141 -0.00012207 33.199 -0.00012207C51.3149 -0.00012207 66.0004 14.7748 66.0004 33.0009C66.0004 51.2271 51.3149 66.002 33.199 66.002V66.0009Z" fill="white"/>
</svg>