<?xml version="1.0" encoding="utf-8"?>
<!-- Generator: Adobe Illustrator 28.0.0, SVG Export Plug-In . SVG Version: 6.00 Build 0)  -->
<svg version="1.1" id="Layer_1" xmlns="http://www.w3.org/2000/svg" xmlns:xlink="http://www.w3.org/1999/xlink" x="0px" y="0px"
	 viewBox="0 0 1200 1200" style="enable-background:new 0 0 1200 1200;" xml:space="preserve">
<style type="text/css">
	.st0{fill:#FFFFFF;}
</style>
<g>
	<path class="st0" d="M962.4,336h-216v-24c0-13.2-10.8-24-24-24s-24,10.8-24,24v24h-192v-24c0-13.2-10.8-24-24-24s-24,10.8-24,24v24
		h-216c-13.2,0-24,10.8-24,24v504c0,13.2,10.8,24,24,24h156c13.2,0,24-10.8,24-24s-10.8-24-24-24h-132V504h672v103.2
		c0,13.2,10.8,24,24,24s24-10.8,24-24V360C986.4,346.8,975.6,336,962.4,336z M266.4,456v-72h192v24c0,13.2,10.8,24,24,24
		s24-10.8,24-24v-24h192v24c0,13.2,10.8,24,24,24s24-10.8,24-24v-24h192v72H266.4z"/>
	<path class="st0" d="M362.4,600h12c13.2,0,24-10.8,24-24s-10.8-24-24-24h-12c-13.2,0-24,10.8-24,24S349.2,600,362.4,600z"/>
	<path class="st0" d="M506.4,552h-12c-13.2,0-24,10.8-24,24s10.8,24,24,24h12c13.2,0,24-10.8,24-24S519.6,552,506.4,552L506.4,552z"
		/>
	<path class="st0" d="M506.4,648h-144c-13.2,0-24,10.8-24,24s10.8,24,24,24h144c13.2,0,24-10.8,24-24S519.6,648,506.4,648L506.4,648
		z"/>
	<path class="st0" d="M434.4,744h-72c-13.2,0-24,10.8-24,24s10.8,24,24,24h72c13.2,0,24-10.8,24-24S447.6,744,434.4,744z"/>
	<path class="st0" d="M1156.8,870c4.8-14.4,7.2-30,7.2-45.6v-450c0-52.8-28.8-100.8-74.4-126L669.6,18c-43.2-24-94.8-24-138,0
		l-420,230.4C64.8,273.6,36,321.6,36,374.4v451.2c0,52.8,28.8,100.8,74.4,126l420,230.4c21.6,12,45.6,18,69.6,18s48-6,69.6-18
		l151.2-82.8c36,60,100.8,100.8,175.2,100.8c112.8,0,204-91.2,204-204C1200,949.2,1183.2,904.8,1156.8,870L1156.8,870z M792,996
		c0,20.4,3.6,40.8,8.4,58.8l-103.2,56.4c-2.4-2.4-6-4.8-9.6-7.2c-28.8-9.6-73.2-38.4-102-69.6c-1.2-1.2-2.4-2.4-3.6-2.4
		c-4.8-4.8-13.2-15.6-15.6-21.6c-40.8-91.2-24-154.8-9.6-184.8c15.6-33.6,40.8-57.6,70.8-66c34.8-9.6,69.6,6,86.4,15.6
		c19.2,10.8,42,10.8,61.2,0c16.8-9.6,51.6-25.2,86.4-15.6c21.6,6,43.2,21.6,60,46.8C847.2,835.2,792,909.6,792,996L792,996z
		 M1101.6,1065.6c-3.6,8.4-12,14.4-21.6,14.4c-3.6,0-6-1.2-9.6-2.4l-84-36c-8.4-3.6-14.4-12-14.4-21.6V900c0-13.2,10.8-24,24-24
		s24,10.8,24,24v104.4l69.6,30C1101.6,1039.2,1107.6,1053.6,1101.6,1065.6L1101.6,1065.6z M1116,825.6v6
		c-33.6-24-74.4-39.6-120-39.6c-8.4,0-15.6,0-24,1.2c-21.6-39.6-55.2-69.6-96-80.4c-42-12-81.6,0-106.8,12c1.2-12,1.2-22.8,2.4-32.4
		c38.4-1.2,68.4-13.2,91.2-34.8c42-40.8,38.4-100.8,38.4-103.2c-1.2-10.8-7.2-19.2-16.8-21.6c-7.2-2.4-52.8-14.4-94.8,15.6
		c-26.4,19.2-44.4,49.2-56.4,90C714,612,684,594,638.4,591.6c-13.2-1.2-24,9.6-25.2,22.8c-1.2,13.2,9.6,24,22.8,25.2
		c54,2.4,73.2,39.6,79.2,81.6c-26.4-10.8-62.4-19.2-100.8-8.4c-43.2,12-80.4,45.6-102,91.2c-30,64.8-26.4,145.2,9.6,225.6
		c2.4,3.6,12,25.2,27.6,38.4c26.4,30,63.6,56.4,96,72l0,0c-28.8,15.6-63.6,15.6-92.4,0l-420-230.4c-31.2-16.8-50.4-49.2-50.4-84
		l0-451.2c0-34.8,19.2-67.2,49.2-84L554.4,60c14.4-8.4,30-12,45.6-12s31.2,3.6,45.6,12l420,230.4c31.2,16.8,50.4,49.2,50.4,84
		L1116,825.6z"/>
</g>
</svg>
