<svg width="390" height="844" viewBox="0 0 390 844" fill="none" xmlns="http://www.w3.org/2000/svg">
<path opacity="0.15" d="M678.648 -89.4418C678.648 -56.8175 704.114 -31.6996 739.324 -31.6996C779.251 -31.6996 804.087 -64.0353 804.087 -100.702C804.087 -148.916 756.615 -215.897 711.659 -215.897C691.224 -215.897 698.769 -188.181 693.739 -158.444C691.224 -135.347 678.648 -107.631 678.648 -89.4418ZM548.18 -395.476C811.633 -349.571 954.362 -167.683 954.362 2.65695C954.362 120.162 874.509 227.852 733.98 227.852C605.712 227.852 513.912 147.59 513.912 18.5361C513.912 -78.1821 595.966 -179.231 595.966 -278.836C595.966 -317.524 583.705 -357.077 548.18 -395.764V-395.476ZM215.248 -4.27209C240.399 18.8248 247.944 41.633 247.944 65.0186C247.944 99.3752 230.338 136.041 230.338 175.595C230.338 230.45 275.924 278.665 340.687 278.665C411.109 278.665 458.895 228.14 458.895 168.377C458.895 80.6089 360.493 -4.27209 215.248 -4.27209ZM1045.22 -151.226C1062.51 -126.108 1070.06 -100.702 1070.06 -77.8934C1070.06 -13.2221 1022.58 46.541 1022.58 112.945C1022.58 189.453 1085.15 251.237 1180.4 251.237C1282.89 251.237 1353 175.595 1353 85.517C1353 -36.319 1232.59 -139.966 1044.9 -151.226H1045.22ZM275.924 -273.351C391.302 -259.493 418.654 -222.538 418.654 -192.8C418.654 -141.987 368.352 -125.819 320.881 -125.819C285.984 -125.819 246.057 -132.749 202.987 -132.749C147.97 -132.749 92.6386 -121.2 47.6819 -72.9854C80.6921 -68.6547 128.164 -47.8675 128.164 -1.67368C128.164 131.711 -275.504 21.4232 -275.504 364.123C-275.504 546.011 -70.2117 743.778 240.713 743.778C401.677 743.778 504.48 695.563 504.48 640.131C504.48 596.536 418.968 626.273 418.968 589.606C418.968 573.439 449.149 543.413 449.149 518.006C449.149 507.035 439.403 486.248 418.968 486.248C374.011 486.248 288.499 552.94 115.589 552.94C-19.5961 552.94 -152.58 481.917 -152.58 385.199C-152.58 364.123 -142.52 352.575 -127.744 352.575C-112.968 352.575 -92.2186 362.102 -74.6131 362.102C-60.1515 362.102 -57.322 352.575 -57.322 327.457C-57.322 302.339 -57.3221 230.45 -9.53586 230.45C38.2504 230.45 128.164 392.128 474.614 392.128C589.678 392.128 812.261 371.341 895.258 302.339C892.743 554.961 677.077 889 225.937 889C-225.203 889 -494 543.413 -494 225.831C-494 -126.108 -180.875 -446 247.944 -446C357.978 -446 451.035 -411.643 451.035 -368.048C451.035 -307.996 287.87 -344.662 275.61 -273.64L275.924 -273.351Z" fill="white"/>
</svg>
