<svg width="29" height="28" viewBox="0 0 29 28" fill="none" xmlns="http://www.w3.org/2000/svg">
<path d="M3.87128 12.3981C3.87684 12.3786 3.88517 12.3592 3.89072 12.337L3.9407 12.2703C4.07121 12.2676 4.21837 12.2703 4.06565 12.0815C4.11008 11.9982 4.15451 11.9149 4.19894 11.8288C4.42108 11.8871 4.57102 11.7067 4.51271 11.4512C4.53492 11.4095 4.55713 11.3679 4.57935 11.3262C4.83481 11.3679 4.93477 11.2568 4.89034 11.0069C5.12359 10.757 5.35405 10.5043 5.5873 10.2544C5.62895 10.2544 5.6706 10.2544 5.71225 10.2544C6.01769 10.2405 6.04268 10.21 5.95105 9.99619C5.99548 9.95454 6.04268 9.91289 6.08711 9.87124C6.12876 9.83237 6.17319 9.79627 6.21484 9.7574C6.25649 9.73241 6.29814 9.70741 6.33979 9.67965C6.53694 9.82959 6.52305 9.67687 6.52861 9.54914C6.60913 9.48805 6.68966 9.42974 6.77018 9.36865C6.79517 9.35199 6.82016 9.33256 6.84515 9.3159C6.86459 9.31034 6.8868 9.30479 6.90624 9.29646C6.95344 9.33533 6.99787 9.37421 7.04508 9.41308C7.08395 9.3159 7.12282 9.22149 7.1617 9.1243C7.45881 8.97436 7.75869 8.82164 8.0558 8.6717C8.09468 8.65504 8.13355 8.6356 8.17242 8.61894C8.58893 8.50232 9.00544 8.38014 9.42473 8.26907C9.60244 8.22187 9.7857 8.19133 9.96896 8.17189C10.2328 8.14135 10.4993 8.12746 10.8547 8.09969C10.6076 7.71928 10.3827 7.39441 10.1828 7.05565C10.0384 6.80574 9.91898 6.53918 9.80791 6.27261C9.69129 5.99216 9.5469 5.70894 9.50525 5.41738C9.44139 4.95645 9.41084 4.4844 9.44139 4.02069C9.49414 3.19323 9.80514 2.44629 10.3133 1.78821C10.3688 1.71601 10.441 1.65493 10.5049 1.58828C10.5215 1.57162 10.5354 1.55496 10.5521 1.5383C10.7076 1.36892 10.8658 1.20232 11.0213 1.03294C11.0602 0.991289 11.0963 0.946862 11.1352 0.905211C11.7794 0.449829 12.4819 0.122176 13.2649 0.0222138C13.6481 -0.0277672 14.0424 0.0222138 14.4339 0.0222138C14.6061 0.0222138 14.8032 -0.0333207 14.9448 0.0333206C15.4169 0.255458 15.9889 0.19437 16.4054 0.569228C16.7719 0.902434 17.1523 1.2162 17.53 1.54108C17.5439 1.55774 17.5605 1.5744 17.5744 1.59106C18.0603 2.16029 18.3713 2.81282 18.5324 3.5431C18.7212 4.39832 18.6545 5.24522 18.3602 6.0588C18.2741 6.2976 18.1853 6.53085 18.1436 6.77798C18.1214 6.81963 18.0964 6.86128 18.0742 6.90293C18.0492 6.91403 18.0215 6.92236 17.9965 6.93347C18.002 6.9418 18.0131 6.95569 18.0131 6.95569C18.0381 6.9418 18.0603 6.92792 18.0825 6.91403C18.1242 6.91403 18.1658 6.91126 18.2075 6.90848C18.2908 6.84462 18.3741 6.78353 18.4574 6.71966C18.4574 6.68079 18.4574 6.64469 18.4574 6.60582C18.5185 6.55861 18.5768 6.51141 18.6379 6.46421C18.6823 6.46421 18.7295 6.46421 18.7739 6.46421C18.9878 6.54473 18.9517 6.38646 18.9628 6.26983C19.1682 5.93663 19.5986 5.93941 19.8569 5.67839C19.8791 5.6534 19.9763 5.70338 20.0373 5.71727C20.204 5.93108 20.3261 5.88942 20.415 5.6534C20.7176 5.58676 21.0175 5.51734 21.3202 5.45348C21.4368 5.42849 21.559 5.41738 21.6784 5.40072C21.7062 5.43682 21.7312 5.47292 21.7589 5.50624C21.795 5.47014 21.8311 5.43404 21.8672 5.40072C21.9505 5.40072 22.0366 5.40072 22.1199 5.40072C22.2504 5.54233 22.3781 5.68395 22.5031 5.82001C22.4809 5.98939 22.4392 6.16154 22.4364 6.33648C22.4309 7.58322 22.4309 8.83275 22.4364 10.0795C22.4364 10.2128 22.4698 10.3488 22.5086 10.4766C22.517 10.5016 22.6253 10.4932 22.6891 10.4988C22.8363 10.6321 22.9807 10.7653 23.1278 10.8986C23.1667 10.9375 23.2028 10.9736 23.2417 11.0125C23.5777 11.5012 23.9331 11.976 24.2413 12.4814C24.4024 12.7451 24.4801 13.0589 24.594 13.3477C24.6523 13.4116 24.7106 13.4782 24.7689 13.5421C24.9633 13.6254 25.1548 13.7114 25.352 13.7864C25.4908 13.8392 25.638 13.8753 25.7796 13.9169C25.8657 13.9586 25.9518 13.9974 26.0378 14.0391C26.5543 14.2168 27.0736 14.3917 27.59 14.5722C27.9094 14.6833 28.051 14.9138 28.0482 15.2497C28.0454 16.2244 28.0482 17.2018 28.0482 18.1764C28.0482 18.5318 27.9066 18.7207 27.565 18.84C27.1624 18.9817 26.7598 19.1233 26.3572 19.2649C26.1489 19.0816 26.024 19.1344 25.9656 19.3954C25.738 19.4787 25.5103 19.562 25.2798 19.6425C25.2243 19.6009 25.1715 19.5592 25.116 19.5176C25.0854 19.587 25.0521 19.6564 25.0216 19.723C24.9577 19.7453 24.8938 19.7675 24.83 19.7925C24.5801 19.7369 24.63 19.8758 24.68 20.0202C24.6217 20.1729 24.5662 20.3228 24.5079 20.4755C24.2302 20.4145 24.3468 20.6172 24.3329 20.7338C24.2885 20.8226 24.2441 20.9087 24.1997 20.9976C24.1469 20.9976 24.0941 20.9976 24.0386 20.9976C24.0664 21.0364 24.0914 21.0725 24.1191 21.1114C23.9775 21.3252 23.8359 21.5418 23.6943 21.7556C23.6471 21.7473 23.5999 21.7389 23.5527 21.7306C23.5582 21.7778 23.5638 21.825 23.5693 21.8722C23.5249 21.9361 23.4833 22 23.4388 22.0638C23.1001 21.9972 23.3083 22.2693 23.2472 22.372C23.225 22.3887 23.2056 22.4054 23.1834 22.422C23.1417 22.447 23.1028 22.4748 23.0612 22.4998C22.6502 22.5192 22.5558 22.6136 22.5531 23.0079C22.4503 23.0912 22.3448 23.1745 22.2421 23.2578C22.1782 23.3245 22.1143 23.3911 22.0505 23.455C21.9672 23.516 21.8839 23.5744 21.8006 23.6354C21.4451 23.6521 21.1758 23.8409 21.1008 24.1241C21.0397 24.1519 20.9759 24.1797 20.9148 24.2074C20.6899 24.0686 20.6427 24.2297 20.5982 24.3935C20.5149 24.4351 20.4289 24.4768 20.3456 24.5184C20.1679 24.4046 20.0262 24.399 19.9652 24.6434L19.9707 24.9599C19.9707 25.7541 19.9735 26.5482 19.9541 27.3424C19.9513 27.4979 19.843 27.6506 19.7819 27.8033C19.6264 27.8172 19.4237 27.7339 19.3959 27.9977C18.4491 27.9921 17.5022 27.9866 16.5553 27.9782C16.5581 27.7117 16.4443 27.5367 16.1694 27.4868C16.1166 27.384 16.0611 27.2841 16.0083 27.1813C16.2083 26.9731 16.1194 26.8814 15.8723 26.8537C15.8251 26.7481 15.7779 26.6454 15.7279 26.5399C15.7668 26.476 15.8056 26.4094 15.8473 26.3455C15.764 26.3039 15.6835 26.265 15.6002 26.2233C15.5474 26.1206 15.4919 26.0206 15.4391 25.9179C15.639 25.7097 15.5502 25.618 15.303 25.5903C15.2364 25.3598 15.0726 25.3209 14.8504 25.3265C14.234 25.3404 13.6176 25.332 12.99 25.332C12.7457 25.8235 12.5013 26.3094 12.2598 26.7954C12.2264 26.7815 12.1626 26.7509 12.1598 26.7565C12.0043 27.0203 11.8488 27.2868 11.7044 27.559C11.6961 27.5756 11.7711 27.6367 11.8072 27.6756C11.7711 27.7172 11.7322 27.7617 11.6961 27.8033C11.5517 27.8033 11.3906 27.7755 11.374 27.9921C10.4688 27.9921 9.56356 27.9949 8.65835 27.9977C8.58616 27.7978 8.46398 27.7422 8.27794 27.8672C8.21685 27.7144 8.10301 27.5617 8.10023 27.4062C8.08079 26.5982 8.09468 25.7874 8.08912 24.9794C8.08912 24.885 8.04747 24.7906 8.02526 24.6962C8.00027 24.6795 7.9725 24.6601 7.94751 24.6434C7.91697 24.6378 7.88642 24.6323 7.85588 24.6267C7.85588 24.5851 7.86143 24.5407 7.86421 24.499C7.83367 24.524 7.8059 24.5462 7.77535 24.5712L7.39494 24.399C7.35885 24.3213 7.32275 24.2463 7.28665 24.1686C7.25888 24.2047 7.23112 24.2435 7.20335 24.2796C7.18391 24.2741 7.16448 24.2658 7.14226 24.2602C7.12005 24.2435 7.09783 24.2269 7.07284 24.2074C7.00898 24.1658 6.94511 24.1241 6.88125 24.0825C6.90069 23.8604 6.63968 23.6965 6.38422 23.766C6.362 23.7465 6.34257 23.7243 6.32035 23.7049C6.3148 23.5771 6.32035 23.4327 6.13154 23.5771C6.07878 23.5327 6.02602 23.4855 5.97326 23.4411C5.96493 23.3883 5.95383 23.3328 5.9455 23.28C5.90107 23.2967 5.85942 23.3133 5.81499 23.33C5.66782 23.2023 5.51788 23.0745 5.37071 22.9468C5.39015 22.8524 5.45124 22.7386 5.41792 22.6719C5.32351 22.4803 5.15135 22.4192 4.9431 22.5025C4.87646 22.4192 4.80982 22.3359 4.74318 22.2526C4.69597 22.1527 4.87368 21.875 4.54325 22C4.50438 21.9555 4.4655 21.9139 4.42663 21.8695C4.44607 21.8361 4.49049 21.7861 4.47939 21.7667C4.34888 21.5446 4.21282 21.3252 4.06565 21.1142C4.05177 21.092 3.96847 21.1142 3.91849 21.1197C3.87684 21.0753 3.83241 21.0309 3.79076 20.9865C3.80187 20.892 3.81297 20.7976 3.82686 20.706C3.7741 20.7171 3.72134 20.7254 3.66858 20.7365C3.59084 20.5727 3.51031 20.4117 3.43256 20.2478C3.65748 20.0202 3.54641 19.9369 3.29095 19.9119C3.27429 19.8702 3.26041 19.8286 3.24375 19.7841C3.27707 19.7453 3.31039 19.7036 3.34093 19.6647C3.27984 19.6425 3.22153 19.6203 3.16044 19.5953C3.06048 19.2371 2.96052 18.8789 2.86056 18.5207C2.89666 18.4819 2.92998 18.443 2.96607 18.4041L2.79114 18.393C2.74671 18.393 2.70506 18.3902 2.66063 18.3874C2.45516 18.2875 2.31077 18.3125 2.28022 18.5735C2.24968 18.5763 2.21081 18.5957 2.18859 18.5818C1.96645 18.4458 1.74709 18.443 1.52218 18.5735C1.48053 18.5568 1.4361 18.5429 1.39445 18.5263C1.22229 18.443 1.05291 18.3569 0.880757 18.2736C0.89464 18.2403 0.905747 18.207 0.919631 18.1764C0.866873 18.1875 0.816892 18.1986 0.764135 18.2097C0.72526 18.1986 0.672503 18.2014 0.650289 18.1764C0.289315 17.721 -0.0605514 17.2601 0.00886658 16.627C0.01442 16.5826 0.044964 16.5437 0.0644011 16.502C0.36984 16.6381 0.308752 16.4049 0.319859 16.2466C0.425375 16.2327 0.53089 16.2188 0.636405 16.2049C0.689163 16.4271 0.750251 16.4576 0.902971 16.3354C0.916854 16.3632 0.930738 16.391 0.944621 16.4187C0.969612 16.4687 0.997379 16.5187 1.02237 16.5687C1.08623 16.7797 1.14732 16.9908 1.21119 17.199C1.20563 17.2656 1.20008 17.3351 1.19453 17.4017C1.26117 17.3962 1.33059 17.3906 1.39723 17.385C1.90814 17.6238 2.22191 17.56 2.62731 17.1351C2.65508 17.1046 2.69673 17.0713 2.69951 17.0352C2.71339 16.6798 2.72172 16.3271 2.73005 15.9717C2.73283 15.8356 2.73005 15.6968 2.73005 15.5607C2.78003 15.5413 2.83279 15.5191 2.88277 15.4997C2.85223 15.4774 2.82446 15.4552 2.79392 15.4358C2.80502 15.3497 2.81891 15.2636 2.83001 15.1776C2.86889 15.1664 2.93553 15.1609 2.94108 15.1387C3.07714 14.6916 3.21043 14.2446 3.3326 13.792C3.34093 13.7614 3.27151 13.7087 3.23819 13.667C3.27429 13.5782 3.31039 13.4921 3.34648 13.4032C3.37703 13.4143 3.40757 13.4282 3.44089 13.4393L3.3687 13.3394C3.4881 13.0895 3.6075 12.8396 3.7269 12.5897C3.8574 12.5841 4.01012 12.5897 3.84629 12.3981H3.87128ZM3.81853 15.6218C3.84074 15.6635 3.86295 15.7051 3.88517 15.7496L3.87128 16.1911C3.79076 16.2577 3.71023 16.3243 3.62971 16.391C3.68802 16.4493 3.74633 16.5104 3.80464 16.5687C3.80464 16.7159 3.80464 16.863 3.80464 17.0102C3.74633 17.0602 3.62971 17.1324 3.63804 17.1546C3.67136 17.2407 3.74633 17.3129 3.80464 17.3906C3.82408 17.56 3.84629 17.7266 3.86573 17.896C3.83519 17.9182 3.80464 17.9376 3.77688 17.9598C3.80742 17.982 3.83796 18.0015 3.86851 18.0237C3.88794 18.107 3.91016 18.1931 3.9296 18.2764C3.89905 18.2986 3.86851 18.318 3.84074 18.3402C3.87128 18.3597 3.90183 18.3819 3.93237 18.4013C4.05732 18.7762 4.18228 19.151 4.30445 19.5287C4.27669 19.5509 4.2517 19.5731 4.22393 19.5981C4.26003 19.6203 4.29335 19.6425 4.32944 19.662C4.55713 20.0618 4.7876 20.4644 5.01529 20.8643C5.00419 20.9226 4.99586 20.9837 4.98475 21.042C5.04584 21.0503 5.10415 21.0586 5.16524 21.067C5.1819 21.0725 5.19023 21.0836 5.18745 21.1003C5.193 21.1753 5.19578 21.2502 5.20133 21.3252C5.24576 21.3169 5.28741 21.3086 5.33184 21.3002C5.3957 21.3863 5.46235 21.4724 5.52621 21.5557C5.52621 21.6307 5.49567 21.7473 5.53176 21.7723C5.59008 21.8139 5.69004 21.7973 5.77334 21.8056C5.96493 21.9972 6.15653 22.186 6.34534 22.3776C6.31202 22.4137 6.2787 22.4498 6.24538 22.4859C6.32035 22.4887 6.39255 22.4942 6.46752 22.497C6.6369 22.6247 6.80628 22.7524 6.97566 22.8802C6.98121 22.9385 6.96177 23.0329 6.99232 23.0523C7.23112 23.2078 7.47824 23.3467 7.72815 23.4883C7.73093 23.4883 7.7698 23.43 7.79201 23.3994L8.23907 23.6382C8.2474 23.6938 8.2474 23.7965 8.26406 23.7993C8.43344 23.827 8.60559 23.8409 8.77775 23.8576C8.87216 23.952 8.96657 24.0464 9.06375 24.1408C9.1054 24.2463 9.14705 24.3518 9.1887 24.4601V26.9175C9.8218 26.9175 10.416 26.9175 11.0102 26.9175C11.0713 26.9314 11.1324 26.9453 11.1935 26.962C11.1741 26.8648 11.1518 26.7676 11.1324 26.6704C11.2435 26.4399 11.3518 26.2095 11.4628 25.9818L11.5878 25.7291C11.796 25.3487 12.0043 24.971 12.2126 24.5906C12.4847 24.6601 12.6207 24.5407 12.6541 24.2741C13.0483 24.2602 13.4399 24.2324 13.8342 24.2324C14.4312 24.2324 15.0281 24.2547 15.6224 24.2658C15.6973 24.6045 15.9278 24.7933 16.2388 24.9044C16.2444 24.9655 16.2471 25.0294 16.2527 25.0904C16.1638 25.2876 16.1222 25.4625 16.4304 25.4736C16.4776 25.5792 16.522 25.6847 16.5692 25.7874C16.4498 25.9596 16.4887 26.0679 16.7025 26.1012C16.7414 26.1845 16.783 26.2706 16.8219 26.3539C16.7331 26.551 16.6914 26.7232 16.9996 26.737C17.0663 26.8009 17.1329 26.9203 17.1995 26.9231C17.7521 26.9397 18.3047 26.9314 18.9044 26.9314V24.338C19.0683 24.2824 19.0572 24.2158 18.9183 24.138C19.0405 23.8798 19.2904 23.8076 19.532 23.7215C19.6153 23.7548 19.7208 23.8381 19.7736 23.8104C19.8402 23.7771 19.8652 23.6549 19.9068 23.5716C20.0318 23.5077 20.1595 23.4439 20.2845 23.38C20.34 23.4161 20.4205 23.4966 20.4483 23.4799C20.6316 23.3855 20.8204 23.2911 20.9703 23.1551C21.0731 23.0662 21.1175 22.9135 21.1869 22.7885L21.2036 22.7747C21.3674 22.8552 21.4257 22.7858 21.4202 22.6219C21.4618 22.5803 21.5062 22.5414 21.5479 22.4998C21.8283 22.5997 21.8589 22.5692 21.8617 22.1832C21.9866 22.0583 22.1116 21.9333 22.2365 21.8084C22.5836 21.9444 22.5642 21.7112 22.5558 21.4918C22.5975 21.4474 22.6364 21.403 22.678 21.3558C22.7252 21.3641 22.7724 21.3696 22.8224 21.378C22.8168 21.3113 22.8113 21.2447 22.8057 21.178C22.9196 20.9892 23.0307 20.8004 23.1445 20.6116C23.1806 20.6116 23.2195 20.6116 23.2556 20.6116C23.2972 20.5477 23.3389 20.4866 23.3805 20.4228C23.3805 20.3617 23.3805 20.2978 23.3805 20.2367C23.4027 20.2145 23.4222 20.1923 23.4444 20.1701C23.7137 20.1201 23.7332 20.0812 23.586 19.898C23.6276 19.8008 23.6693 19.7008 23.711 19.6036C23.9137 19.587 23.9414 19.5009 23.8165 19.3482C23.822 19.3288 23.8304 19.3065 23.8359 19.2871C24.0775 19.2427 24.2219 19.1011 24.2635 18.8567C24.4079 18.8095 24.5523 18.7623 24.6995 18.7151C24.9355 18.9011 25.0688 18.8512 25.1493 18.5429C25.3575 18.4735 25.5658 18.4069 25.7741 18.3375C26.0101 18.5235 26.1434 18.4735 26.2239 18.1653C26.3794 18.1181 26.5321 18.0459 26.6904 18.032C26.8903 18.0126 26.968 17.921 26.968 17.7349C26.968 16.9991 26.968 16.266 26.968 15.5358C26.5654 15.3941 26.1767 15.2609 25.7907 15.1192C25.2187 14.9082 24.6467 14.6916 24.0747 14.475C24.0525 14.4584 24.0303 14.4445 24.0081 14.4278C23.9664 14.3751 23.9137 14.3251 23.8887 14.264C23.686 13.792 23.5582 13.2727 23.2722 12.859C22.8779 12.2898 22.3809 11.79 21.9005 11.2818C21.7006 11.0708 21.6006 10.8598 21.6034 10.5654C21.6117 9.2437 21.6034 7.91921 21.6006 6.59749C21.584 6.57805 21.5673 6.56139 21.5507 6.54195C21.0675 6.65302 20.5594 6.70856 20.104 6.89182C19.1488 7.27501 18.4435 7.98029 17.9021 8.84385C17.7549 9.07988 17.5772 9.18817 17.2967 9.18539C15.1503 9.17706 13.0067 9.17984 10.8603 9.17984C10.777 9.17984 10.6909 9.17706 10.6104 9.19372C9.94397 9.33811 9.28034 9.48528 8.61392 9.63244C8.56117 9.61856 8.51119 9.60468 8.45843 9.59079C8.46953 9.62411 8.47786 9.65743 8.48897 9.69075C8.40289 9.72685 8.31681 9.76295 8.23074 9.79905C8.13077 9.77961 8.01415 9.7213 7.93918 9.75462C7.86699 9.78794 7.83922 9.91845 7.79201 10.0045C7.62263 10.11 7.45603 10.2183 7.28665 10.3238C7.245 10.3461 7.20335 10.3655 7.15892 10.3877C7.11727 10.4238 7.07284 10.4571 7.03119 10.4932C6.99232 10.4682 6.95344 10.446 6.91457 10.421C6.90624 10.4793 6.89791 10.5404 6.88958 10.5987L6.86737 10.621C6.79517 10.621 6.7202 10.621 6.64801 10.621C6.65078 10.6682 6.65356 10.7181 6.65634 10.7653C6.57303 10.8292 6.48973 10.8931 6.40365 10.9542C6.32313 10.9542 6.22872 10.9319 6.16208 10.9653C6.0288 11.0319 5.87052 11.1208 6.07045 11.2929C6.0399 11.3235 6.00936 11.354 5.97604 11.3846C5.87608 11.3873 5.72336 11.354 5.68726 11.404C5.61507 11.5067 5.60951 11.6511 5.57619 11.7788C5.51233 11.8621 5.44846 11.9455 5.38737 12.0315C5.34572 12.0732 5.30407 12.1148 5.26242 12.1593C5.24021 12.2009 5.22077 12.2426 5.19856 12.2842C5.14858 12.2842 5.0986 12.2814 5.04861 12.2787C5.07083 12.3203 5.09582 12.362 5.11803 12.4036C4.93477 12.6979 4.74873 12.9951 4.56546 13.2894C4.50438 13.3172 4.44051 13.3449 4.37942 13.3755C4.41552 13.4088 4.44884 13.4449 4.48494 13.4782C4.42941 13.5837 4.37387 13.6892 4.32111 13.7947C4.29335 13.8725 4.26558 13.953 4.23781 14.0308C4.17672 14.2029 4.11286 14.3751 4.05177 14.55C3.81575 14.6389 3.77965 14.7638 3.98513 14.9276C3.96569 15.1165 3.94348 15.3053 3.92404 15.4969C3.88517 15.5385 3.84629 15.5802 3.80742 15.6246L3.81853 15.6218ZM14.8671 8.04416C15.1809 8.11913 15.3586 8.03861 15.4363 7.79148C15.4363 7.77482 15.4363 7.75816 15.4363 7.73872C15.7112 7.62487 15.9833 7.51103 16.2582 7.39718C16.2721 7.38052 16.2888 7.36386 16.3027 7.34998C16.4526 7.1806 16.6025 7.01122 16.7553 6.84184C17.0329 6.78908 17.1607 6.59193 17.0746 6.33925C17.2245 6.06991 17.3717 5.79779 17.5216 5.52845C17.5383 5.51179 17.555 5.49513 17.5716 5.47847C17.555 5.47014 17.5411 5.45903 17.5244 5.4507C17.5244 5.07307 17.5244 4.69821 17.5244 4.32058C17.5244 4.18452 17.5439 4.0429 17.5189 3.9124C17.1968 2.2658 15.7806 1.06626 14.0868 1.03016C13.4954 1.01628 12.9623 1.22176 12.4097 1.3717C12.3736 1.38836 12.3347 1.40502 12.2986 1.42168C12.1154 1.56885 11.9266 1.71046 11.7488 1.8604C11.0436 2.46017 10.6159 3.22377 10.5299 4.13731C10.466 4.82316 10.4965 5.50624 10.8797 6.14211C11.2407 6.74188 11.635 7.29167 12.2375 7.6693C12.2959 7.68596 12.3542 7.7054 12.4097 7.72206C13.1316 8.1108 13.9008 8.11913 14.6838 8.01084C14.7033 8.01084 14.7199 7.99418 14.7394 7.98307C14.7838 8.00529 14.8254 8.0275 14.8699 8.04971L14.8671 8.04416ZM17.2662 7.77204C17.2162 7.78037 17.1273 7.76926 17.0774 7.80536C17.0024 7.86367 16.9385 7.94975 16.8997 8.03583C16.883 8.07193 16.9413 8.18855 16.9663 8.18855C17.0635 8.18855 17.1912 8.18855 17.2495 8.13301C17.4189 7.96919 17.5688 7.78315 17.7049 7.58878C17.7382 7.5388 17.6882 7.4305 17.6771 7.3472C17.5994 7.36386 17.4883 7.35276 17.4467 7.40274C17.3717 7.49159 17.3384 7.61654 17.2662 7.77204ZM17.9159 7.11951C17.9159 7.11951 17.9021 7.11396 17.8937 7.11118C17.8937 7.12229 17.8937 7.1334 17.8909 7.1445C17.8993 7.1445 17.9076 7.1445 17.9132 7.13895C17.9159 7.13895 17.9132 7.12784 17.9132 7.11951H17.9159Z" fill="white"/>
<path d="M3.26365 13.6643C3.29697 13.706 3.36639 13.7587 3.35806 13.7893C3.23588 14.2391 3.1026 14.6889 2.96654 15.136C2.96098 15.1582 2.89434 15.161 2.85547 15.1748C2.8999 14.936 2.9471 14.7 2.98042 14.4612C2.99153 14.389 2.95821 14.3085 2.9471 14.2335C2.9832 14.1919 3.02207 14.1475 3.05817 14.1058C3.12759 13.9586 3.19423 13.8115 3.26365 13.6643Z" fill="white"/>
<path d="M3.94141 21.1226C3.99139 21.1226 4.07191 21.0948 4.08857 21.117C4.23296 21.3308 4.36902 21.5502 4.5023 21.7695C4.51341 21.7862 4.46898 21.8362 4.44955 21.8723L3.94418 21.1226H3.94141Z" fill="white"/>
<path d="M4.51103 11.454C4.56935 11.7094 4.4194 11.8899 4.19727 11.8316C4.30278 11.7067 4.40552 11.5789 4.51103 11.454Z" fill="white"/>
<path d="M5.95169 9.99609C6.04332 10.2099 6.01833 10.2377 5.71289 10.2543C5.71289 10.2182 5.71289 10.1821 5.71289 10.1433C5.79342 10.0933 5.87394 10.0461 5.95169 9.99609Z" fill="white"/>
<path d="M3.31055 19.9147C3.56601 19.9369 3.67707 20.023 3.45216 20.2507C3.40496 20.1396 3.35775 20.0285 3.31055 19.9147Z" fill="white"/>
<path d="M2.30273 18.5791C2.33328 18.3181 2.47767 18.2931 2.68314 18.393C2.66093 18.4319 2.64149 18.4708 2.61928 18.5124C2.51376 18.5346 2.40825 18.5569 2.30273 18.5791Z" fill="white"/>
<path d="M4.89107 11.0068C4.93272 11.2567 4.83276 11.3678 4.58008 11.3262C4.68282 11.2206 4.78833 11.1124 4.89107 11.0068Z" fill="white"/>
<path d="M0.343349 16.2466C0.332242 16.4049 0.39333 16.6381 0.0878906 16.502C0.173969 16.416 0.257271 16.3299 0.343349 16.2466Z" fill="white"/>
<path d="M20.4206 5.65625C20.329 5.89227 20.2068 5.93392 20.043 5.72011C20.1679 5.6979 20.2957 5.67846 20.4206 5.65625Z" fill="white"/>
<path d="M7.16562 9.12988C7.12674 9.22707 7.08787 9.32148 7.04899 9.41866C7.00179 9.37979 6.95736 9.34091 6.91016 9.30204C6.99623 9.24651 7.07954 9.18819 7.16562 9.13266V9.12988Z" fill="white"/>
<path d="M3.69141 20.7393C3.74416 20.7282 3.79692 20.7198 3.84968 20.7087C3.83857 20.8031 3.82747 20.8976 3.81358 20.9892C3.77193 20.9059 3.73306 20.8226 3.69141 20.7393Z" fill="white"/>
<path d="M1.4234 17.3822C1.35676 17.3878 1.28734 17.3933 1.2207 17.3989C1.22626 17.3322 1.23181 17.2628 1.23736 17.1962C1.29845 17.2573 1.35954 17.3183 1.4234 17.3822Z" fill="white"/>
<path d="M0.928675 16.3327C0.775955 16.4548 0.714867 16.4271 0.662109 16.2021C0.750964 16.2466 0.83982 16.2882 0.928675 16.3327Z" fill="white"/>
<path d="M18.9681 6.27271C18.9598 6.38933 18.9931 6.5476 18.7793 6.46708C18.7793 6.44486 18.7793 6.42265 18.7793 6.39766C18.8432 6.35601 18.9042 6.31436 18.9681 6.27271Z" fill="white"/>
<path d="M18.4628 6.71688C18.3795 6.78075 18.2962 6.84184 18.2129 6.9057C18.2129 6.8696 18.2129 6.83351 18.2129 6.79463C18.2601 6.75576 18.3045 6.71966 18.3517 6.68079C18.3906 6.69189 18.4267 6.703 18.4656 6.71411L18.4628 6.71688Z" fill="white"/>
<path d="M4.06245 12.0815C4.21517 12.2731 4.06801 12.2648 3.9375 12.2704C3.97915 12.2065 4.0208 12.1426 4.06245 12.0815Z" fill="white"/>
<path d="M3.87331 12.3981C4.03436 12.5897 3.88441 12.5841 3.75391 12.5897C3.79278 12.5258 3.83443 12.4619 3.87331 12.3981Z" fill="white"/>
<path d="M3.17969 19.6008C3.24078 19.623 3.29909 19.6453 3.36017 19.6702C3.32685 19.7091 3.29353 19.7508 3.26299 19.7896C3.23522 19.7258 3.20745 19.6647 3.17969 19.6008Z" fill="white"/>
<path d="M6.52866 9.552C6.52311 9.67973 6.53699 9.83245 6.33984 9.68251C6.40371 9.63808 6.4648 9.59643 6.52866 9.552Z" fill="white"/>
<path d="M2.81137 18.4014L2.9863 18.4125C2.95021 18.4513 2.91689 18.4902 2.88079 18.5291L2.80859 18.4513C2.80859 18.4347 2.80859 18.418 2.81137 18.4014Z" fill="white"/>
<path d="M0.787109 18.2125C0.839867 18.2014 0.889848 18.1903 0.942606 18.1792C0.928722 18.2125 0.917615 18.2458 0.903732 18.2764C0.864858 18.2542 0.825983 18.232 0.787109 18.2125Z" fill="white"/>
<path d="M2.81073 18.4013C2.81073 18.418 2.80796 18.4346 2.80796 18.4513L2.61914 18.5152C2.64135 18.4763 2.66079 18.4374 2.68301 18.3958C2.72743 18.3958 2.76908 18.3985 2.81351 18.4013H2.81073Z" fill="white"/>
<path d="M11.1412 0.905205C11.1023 0.946856 11.0662 0.991284 11.0273 1.03293C11.0329 0.974623 11.0385 0.916312 11.0468 0.855225C11.0773 0.871885 11.1106 0.885769 11.1412 0.902429V0.905205Z" fill="white"/>
<path d="M2.81972 15.433C2.85027 15.4552 2.87803 15.4774 2.90858 15.4968C2.8586 15.5163 2.80584 15.5385 2.75586 15.5579C2.77807 15.5163 2.80029 15.4746 2.81972 15.433Z" fill="white"/>
<path d="M5.71284 10.1433C5.71284 10.1794 5.71284 10.2155 5.71284 10.2544C5.67119 10.2544 5.62954 10.2544 5.58789 10.2544C5.62954 10.2183 5.67119 10.1794 5.71284 10.1433Z" fill="white"/>
<path d="M3.39135 13.3365L3.46355 13.4365C3.43301 13.4254 3.40246 13.4115 3.36914 13.4004C3.37747 13.3782 3.38302 13.3588 3.39135 13.3365Z" fill="white"/>
<path d="M18.2134 6.79742C18.2134 6.83352 18.2134 6.86962 18.2134 6.90849C18.1717 6.90849 18.1301 6.91127 18.0884 6.91404L18.0801 6.90571C18.1023 6.86406 18.1273 6.82241 18.1495 6.78076L18.2106 6.8002L18.2134 6.79742Z" fill="white"/>
<path d="M18.4615 6.7169C18.4226 6.7058 18.3865 6.69469 18.3477 6.68358C18.3865 6.65859 18.4226 6.63083 18.4615 6.60583C18.4615 6.64471 18.4615 6.68081 18.4615 6.71968V6.7169Z" fill="white"/>
<path d="M18.7767 6.39758C18.7767 6.4198 18.7767 6.44201 18.7767 6.467C18.7323 6.467 18.6878 6.467 18.6406 6.467C18.6851 6.44479 18.7295 6.42257 18.7739 6.40036L18.7767 6.39758Z" fill="white"/>
<path d="M17.2621 7.77481C17.3342 7.61932 17.3676 7.49714 17.4425 7.40551C17.4814 7.35831 17.5925 7.36664 17.673 7.34998C17.6841 7.4305 17.7369 7.54157 17.7008 7.59155C17.5647 7.78592 17.4148 7.96918 17.2454 8.13579C17.1871 8.1941 17.0594 8.1941 16.9622 8.19132C16.9372 8.19132 16.8789 8.0747 16.8955 8.0386C16.9344 7.95252 16.9983 7.86645 17.0732 7.80813C17.1232 7.76926 17.2121 7.78037 17.2621 7.77481Z" fill="white"/>
<path d="M5.98774 11.3817C5.85446 11.5122 5.72117 11.6455 5.58789 11.776C5.62121 11.6483 5.62954 11.5011 5.69896 11.4012C5.73228 11.3512 5.88778 11.3845 5.98774 11.3817Z" fill="white"/>
<path d="M14.8661 7.86925C15.0382 7.84426 15.2104 7.81927 15.3825 7.7915H15.4075H15.4325C15.3548 8.03863 15.1771 8.11916 14.8633 8.04419C14.8633 7.98587 14.8633 7.92756 14.8633 7.86648L14.8661 7.86925Z" fill="white"/>
<path d="M8.23755 9.79621C8.09038 9.86563 7.94599 9.93227 7.79883 10.0017C7.84603 9.91561 7.8738 9.7851 7.94599 9.75178C8.02097 9.71846 8.14037 9.77677 8.23755 9.79621Z" fill="white"/>
<path d="M16.7539 6.84194C16.8594 6.67534 16.9677 6.50596 17.0732 6.33936C17.1593 6.59204 17.0316 6.78918 16.7539 6.84194Z" fill="white"/>
<path d="M6.41234 10.9515C6.30127 11.0653 6.19021 11.1764 6.07914 11.2902C5.87921 11.1181 6.03749 11.032 6.17077 10.9626C6.23741 10.9293 6.33182 10.9542 6.41234 10.9515Z" fill="white"/>
<path d="M3.81772 16.4494C3.81217 16.4883 3.80662 16.5299 3.80384 16.5688C3.74553 16.5105 3.68722 16.4494 3.62891 16.3911C3.70943 16.3244 3.78996 16.2578 3.87048 16.1912C3.87048 16.255 3.87048 16.3189 3.87048 16.3828C3.85382 16.405 3.83716 16.43 3.8205 16.4522L3.81772 16.4494Z" fill="white"/>
<path d="M3.80375 17.0101C3.80375 17.1351 3.80375 17.2628 3.80375 17.3877C3.74543 17.31 3.67046 17.2406 3.63714 17.1517C3.62881 17.1295 3.74543 17.0573 3.80375 17.0073V17.0101Z" fill="white"/>
<path d="M4.05969 14.5474C4.03747 14.6723 4.01526 14.8 3.99304 14.925C3.78479 14.7584 3.82366 14.6362 4.05969 14.5474Z" fill="white"/>
<path d="M4.57667 13.2894L4.49614 13.4782C4.46004 13.4449 4.42672 13.4088 4.39062 13.3755C4.45171 13.3477 4.51558 13.32 4.57667 13.2894Z" fill="white"/>
<path d="M6.87561 10.6182C6.80619 10.6654 6.734 10.7126 6.66458 10.7626C6.6618 10.7153 6.65903 10.6654 6.65625 10.6182C6.72844 10.6182 6.80342 10.6182 6.87561 10.6182Z" fill="white"/>
<path d="M5.01882 20.8616C5.06881 20.9282 5.11879 20.9976 5.16877 21.0643C5.10768 21.0559 5.04937 21.0476 4.98828 21.0393C4.99939 20.981 5.00772 20.9199 5.01882 20.8616Z" fill="white"/>
<path d="M5.19418 21.0975C5.24139 21.1642 5.28859 21.2308 5.3358 21.2975C5.29137 21.3058 5.24972 21.3141 5.20529 21.3224C5.19974 21.2475 5.19696 21.1725 5.19141 21.0975H5.19418Z" fill="white"/>
<path d="M7.03614 10.4906C6.98894 10.5267 6.94174 10.5628 6.89453 10.5989C6.90286 10.5405 6.91119 10.4795 6.91952 10.4211C6.9584 10.4461 6.99727 10.4683 7.03614 10.4933V10.4906Z" fill="white"/>
<path d="M5.20658 12.2813C5.17882 12.323 5.15383 12.3619 5.12606 12.4035C5.10384 12.3619 5.07885 12.3202 5.05664 12.2786C5.10662 12.2786 5.1566 12.2813 5.20658 12.2841V12.2813Z" fill="white"/>
<path d="M3.9322 15.4941C3.9322 15.5358 3.9322 15.5774 3.9322 15.6191C3.89333 15.6191 3.85446 15.6191 3.81836 15.6191C3.85723 15.5774 3.89611 15.5358 3.93498 15.4913L3.9322 15.4941Z" fill="white"/>
<path d="M8.61643 9.62966C8.57478 9.6491 8.53313 9.66854 8.49148 9.68797C8.48037 9.65465 8.47204 9.62133 8.46094 9.58801C8.5137 9.6019 8.56368 9.61578 8.61643 9.62966Z" fill="white"/>
<path d="M4.32827 13.792C4.3005 13.8697 4.27273 13.9503 4.24219 14.028C4.26995 13.9503 4.29772 13.8697 4.32827 13.792Z" fill="white"/>
<path d="M5.39839 12.0288C5.35674 12.0705 5.31509 12.1121 5.27344 12.1565C5.31509 12.1149 5.35674 12.0732 5.39839 12.0288Z" fill="white"/>
<path d="M14.8668 7.86914C14.8668 7.92745 14.8668 7.98576 14.8668 8.04685C14.8224 8.02464 14.7808 8.00242 14.7363 7.98021L14.8668 7.86914Z" fill="white"/>
<path d="M4.30709 19.5259C4.31542 19.5703 4.32375 19.6147 4.33208 19.6592C4.29598 19.6369 4.26266 19.6147 4.22656 19.5953C4.25433 19.5731 4.27932 19.5509 4.30709 19.5259Z" fill="white"/>
<path d="M7.29179 10.3239C7.25014 10.3461 7.20849 10.3655 7.16406 10.3877C7.20571 10.3655 7.24736 10.3461 7.29179 10.3239Z" fill="white"/>
<path d="M3.93343 18.2736C3.93343 18.3152 3.93343 18.3569 3.93343 18.3985C3.90288 18.3791 3.87234 18.3569 3.8418 18.3374C3.87234 18.3152 3.90288 18.2958 3.93065 18.2736H3.93343Z" fill="white"/>
<path d="M12.2285 7.66382C12.2868 7.68048 12.3451 7.69992 12.4007 7.71658C12.3424 7.69992 12.2841 7.68048 12.2285 7.66382Z" fill="white"/>
<path d="M3.86702 17.8961C3.86702 17.9377 3.86702 17.9794 3.86702 18.021C3.83648 17.9988 3.80593 17.9794 3.77539 17.9572L3.86425 17.8933L3.86702 17.8961Z" fill="white"/>
<path d="M3.81723 15.6218C3.8561 15.6218 3.89498 15.6218 3.93108 15.6218C3.91442 15.6635 3.89775 15.7079 3.88109 15.7496C3.85888 15.7079 3.83667 15.6663 3.81445 15.6218H3.81723Z" fill="white"/>
<path d="M18.088 6.91125C18.0658 6.92514 18.0436 6.9418 18.0186 6.9529C18.0186 6.9529 18.0075 6.93902 18.002 6.93069C18.0269 6.91958 18.0547 6.91125 18.0797 6.90015L18.088 6.90848V6.91125Z" fill="white"/>
<path d="M17.9128 7.11941C17.9128 7.11941 17.9128 7.13608 17.9128 7.13885C17.9073 7.14441 17.899 7.14163 17.8906 7.14441C17.8906 7.1333 17.8906 7.12219 17.8934 7.11108C17.9017 7.11108 17.9073 7.11664 17.9156 7.11941H17.9128Z" fill="white"/>
<path d="M17.5145 5.52843C17.5145 5.50344 17.5145 5.47567 17.5145 5.45068C17.5312 5.45901 17.545 5.47012 17.5617 5.47845C17.545 5.49511 17.5284 5.51177 17.5117 5.52843H17.5145Z" fill="white"/>
<path d="M15.4328 7.79153H15.4078H15.3828C15.3995 7.77487 15.4189 7.75821 15.4356 7.73877C15.4356 7.75543 15.4356 7.77209 15.4356 7.79153H15.4328Z" fill="white"/>
<path d="M16.2559 7.39999C16.2697 7.38333 16.2864 7.36667 16.3003 7.35278C16.2864 7.36944 16.2697 7.3861 16.2559 7.39999Z" fill="white"/>
<path d="M13.9419 11.8539C13.0811 11.8539 12.2176 11.8483 11.3568 11.8539C11.043 11.8539 10.8431 11.6567 10.7959 11.4151C10.7626 11.2485 10.907 11.0208 11.0264 10.8626C11.0874 10.782 11.2679 10.7682 11.3957 10.7654C13.0895 10.7598 14.7805 10.7571 16.4743 10.7654C16.6714 10.7654 16.888 10.8154 17.0574 10.9098C17.2656 11.0264 17.324 11.2569 17.2434 11.4846C17.1324 11.8067 16.8214 11.8344 16.5604 11.84C15.6885 11.8622 14.8166 11.8483 13.9419 11.8483V11.8539Z" fill="white"/>
</svg>
