<svg width="27" height="27" viewBox="0 0 27 27" fill="none" xmlns="http://www.w3.org/2000/svg">
<path d="M1.30464 11.1965C1.06505 15.1827 2.3973 18.4475 5.4541 20.9619C6.98909 22.2257 8.7663 22.9761 10.7383 23.2631C11.1543 23.3236 11.386 23.6212 11.336 24.0082C11.2939 24.3399 10.9411 24.5874 10.5619 24.519C5.79375 23.6396 2.50525 20.9488 0.749099 16.4281C0.0355816 14.5929 -0.153987 12.6683 0.119835 10.7226C0.793858 5.9649 4.08236 1.86546 9.03222 0.472655C12.0021 -0.364609 14.8878 -0.0802547 17.676 1.252C20.6038 2.65007 22.618 4.89067 23.8502 7.86585C24.0319 8.30291 23.9424 8.56621 23.5817 8.72418C23.1393 8.91375 22.8023 8.7821 22.6101 8.34767C22.4495 7.98433 22.2836 7.62363 22.1309 7.25765C22.0388 7.03912 21.8966 6.94697 21.657 6.90748C20.6407 6.73107 19.6902 7.01279 18.7371 7.29451C17.9657 7.52094 17.2048 7.7658 16.4017 7.89218C14.5482 8.18443 13.3976 6.27031 13.9426 4.74849C14.3296 3.669 15.0405 2.85807 15.9541 2.19984C16.0278 2.14718 16.1042 2.09716 16.2306 2.00764C15.7567 1.76804 15.2959 1.65746 14.8325 1.54425C13.2949 1.16774 11.7467 1.14405 10.1881 1.40997C9.94584 1.4521 9.96427 1.51792 10.0828 1.67589C10.3566 2.0366 10.6014 2.41311 10.6989 2.86597C10.8726 3.65584 10.5619 4.29037 10.0643 4.86697C9.60093 5.40409 9.01379 5.80165 8.47668 6.25451C8.05541 6.60732 7.68417 6.99436 7.55779 7.56307C7.40772 8.22656 7.89744 8.73471 8.56093 8.56621C8.82686 8.49775 9.07698 8.36347 9.335 8.26079C10.1854 7.92114 11.0385 7.60783 11.9863 7.7895C13.5345 8.08965 14.3112 9.68519 13.5766 11.0885C13.2317 11.7468 12.7051 12.2207 12.0416 12.5419C11.0148 13.0395 10.6699 14.0953 11.2781 15.0616C12.6182 17.1837 11.7257 19.4612 10.067 20.6275C9.46139 21.0541 8.79262 21.2805 8.04751 20.9593C7.34979 20.6591 7.02331 20.1589 7.06281 19.4006C7.07861 19.0847 7.126 18.7687 7.17866 18.4554C7.26818 17.9288 7.15233 17.6471 6.6863 17.3575C6.32559 17.1337 5.96489 16.9125 5.62788 16.6545C4.88276 16.0858 4.55628 15.2985 4.41147 14.4086C4.35091 14.0295 4.32458 13.6477 4.32458 13.2607C4.32458 12.6024 3.92438 12.2233 3.37411 11.9627C2.72904 11.6546 2.03659 11.4835 1.30991 11.2096L1.30464 11.1965ZM8.41612 9.86159C7.07071 9.86159 6.21238 8.89005 6.39405 7.56307C6.51516 6.66788 7.03121 6.00965 7.69207 5.44621C8.06595 5.12763 8.46615 4.84065 8.83212 4.51416C9.83789 3.61634 9.83789 3.0371 8.85582 2.11559C8.83739 2.09716 8.81369 2.08136 8.79789 2.06293C8.63992 1.86809 8.47405 1.8602 8.23972 1.96025C4.90383 3.40045 2.70535 5.84378 1.69168 9.34028C1.52844 9.90372 1.5416 9.90635 2.08662 10.1038C2.88175 10.3908 3.70059 10.6251 4.42727 11.0806C5.0381 11.465 5.462 11.9969 5.58575 12.7183C5.64894 13.0948 5.64367 13.4845 5.67 13.8689C5.73056 14.7167 6.00175 15.446 6.78372 15.8988C7.0944 16.0779 7.39456 16.2754 7.69734 16.4649C8.11334 16.7282 8.37136 17.1205 8.45298 17.5892C8.53987 18.1 8.50037 18.6213 8.42665 19.1347C8.39769 19.3295 8.3108 19.5375 8.48458 19.6955C8.68994 19.8798 8.93217 19.8166 9.1586 19.7271C10.1064 19.3611 10.9016 17.8946 10.7357 16.8836C10.6488 16.3464 10.4092 15.8857 10.1617 15.4144C9.39029 13.9505 10.0011 12.1522 11.494 11.444C11.9074 11.2465 12.2733 10.9832 12.5103 10.5804C12.9079 9.90899 12.5735 9.18494 11.8047 9.05329C11.0596 8.92691 10.3987 9.2218 9.74574 9.50879C9.31921 9.69572 8.89794 9.88529 8.41875 9.86159H8.41612ZM21.2252 5.64368C20.2774 4.44044 19.2216 3.51103 17.9815 2.79224C17.8893 2.73959 17.813 2.68166 17.6918 2.74222C16.5097 3.31883 15.5118 4.06657 15.2011 5.44358C15.0537 6.09917 15.5434 6.68368 16.2174 6.68894C16.5123 6.68894 16.7914 6.61522 17.0705 6.54413C18.4185 6.19396 19.7218 5.64895 21.2252 5.64631V5.64368Z" fill="white"/>
<path d="M26.3283 15.2748C26.3283 17.7471 25.9413 19.8876 24.7223 21.8018C23.5243 23.6843 21.8577 24.9612 19.6381 25.3772C18.298 25.63 16.9499 25.5326 15.6414 25.1113C15.3939 25.0323 15.2096 25.0587 14.991 25.2035C13.9589 25.8828 12.8584 26.4409 11.7236 26.9228C11.3287 27.0913 10.9311 26.9754 10.8021 26.6568C10.6494 26.283 10.8021 25.9486 11.2181 25.7696C12.1317 25.3746 13.0111 24.9165 13.8668 24.4057C14.1301 24.2477 14.1959 24.1345 14.0221 23.837C13.2849 22.5706 12.8321 21.1936 12.8715 19.7244C12.9505 16.7966 14.2801 14.6034 16.892 13.2106C18.2532 12.4865 19.7092 12.0021 21.1441 11.4597C22.3158 11.0174 23.4216 10.4513 24.3905 9.64037C24.846 9.2586 25.3094 9.39288 25.499 9.97212C25.8149 10.9384 26.0045 11.9363 26.144 12.9394C26.2625 13.7898 26.3599 14.6482 26.3257 15.2748H26.3283ZM24.5432 11.2017C23.8192 11.6308 23.1267 12.0153 22.4027 12.3444C21.0862 12.942 19.6855 13.3133 18.377 13.9267C17.3633 14.4007 16.3601 14.9114 15.6229 15.775C13.7562 17.9577 13.6746 20.8276 15.0358 23.2683C15.1648 23.5 15.2754 23.5158 15.4887 23.3525C16.7867 22.3731 17.9557 21.2541 19.022 20.0325C20.0014 18.9108 20.8545 17.6944 21.5996 16.4043C21.7392 16.1647 21.9314 16.0067 22.2026 16.0225C22.4711 16.041 22.6581 16.2174 22.7686 16.4649C22.8792 16.7124 22.7397 16.9019 22.6291 17.0941C21.2047 19.5691 19.3854 21.7149 17.2106 23.5658C17.0078 23.7369 16.7577 23.866 16.6076 24.1187C16.6814 24.1529 16.7261 24.1845 16.7761 24.1924C18.5876 24.49 20.2911 24.253 21.7971 23.1287C23.6349 21.757 24.5406 19.8429 24.8881 17.6339C25.2278 15.4854 25.0224 13.358 24.5458 11.2017H24.5432Z" fill="white"/>
</svg>
