<svg width="27" height="24" viewBox="0 0 27 24" fill="none" xmlns="http://www.w3.org/2000/svg">
<path d="M22.6981 6.50156C22.6343 6.49601 22.5232 6.50156 22.5176 6.47935C22.4788 6.35162 22.4482 6.21556 22.4455 6.08227C22.4399 4.83553 22.4399 3.586 22.4455 2.33925C22.4455 2.16432 22.4899 1.98939 22.5121 1.82279C22.3871 1.68673 22.2566 1.54511 22.1289 1.4035C22.4566 1.39795 22.6454 1.58676 22.687 1.96162C22.6482 2.04492 22.576 2.131 22.576 2.2143C22.5676 3.51936 22.5676 4.82442 22.576 6.12948C22.576 6.21278 22.6482 6.29886 22.687 6.38216C22.6926 6.42103 22.6954 6.46269 22.7009 6.50156H22.6981Z" fill="white"/>
<path d="M22.6837 6.3794C22.6448 6.2961 22.5727 6.21002 22.5727 6.12672C22.5643 4.82166 22.5643 3.5166 22.5727 2.21154C22.5727 2.12824 22.6448 2.04216 22.6837 1.95886C22.6837 3.4333 22.6837 4.90496 22.6837 6.3794Z" fill="white"/>
<path d="M11.826 23.6811C11.7899 23.6422 11.715 23.5812 11.7233 23.5645C11.8677 23.2924 12.0204 23.0258 12.1787 22.762C12.1815 22.7565 12.2425 22.787 12.2786 22.8009C12.1287 23.0952 11.9788 23.3896 11.826 23.6811Z" fill="white"/>
<path d="M4.96484 18.5053C5.1731 18.422 5.34525 18.4831 5.43966 18.6747C5.47298 18.7413 5.4119 18.858 5.39246 18.9496C5.25085 18.8024 5.10923 18.6525 4.96762 18.5053H4.96484Z" fill="white"/>
<path d="M22.5703 19.0163C22.5703 18.622 22.6675 18.5276 23.0785 18.5081C22.9091 18.6775 22.7397 18.8469 22.5703 19.0163Z" fill="white"/>
<path d="M21.1133 20.1324C21.191 19.8492 21.4604 19.6632 21.813 19.6437C21.5798 19.8076 21.3465 19.9686 21.1133 20.1324Z" fill="white"/>
<path d="M16.1855 23.4951C16.4604 23.545 16.5743 23.72 16.5715 23.9865C16.28 23.9504 16.255 23.7061 16.1855 23.4951Z" fill="white"/>
<path d="M6.4043 19.7715C6.66253 19.7021 6.92077 19.8659 6.90133 20.088C6.73473 19.9825 6.56812 19.877 6.4043 19.7715Z" fill="white"/>
<path d="M19.9766 20.6517C20.0377 20.4074 20.1793 20.4157 20.357 20.5268C20.2737 20.5906 20.1931 20.6545 20.1098 20.7156C20.0654 20.6934 20.021 20.6711 19.9766 20.6489V20.6517Z" fill="white"/>
<path d="M25.9785 15.3981C26.0368 15.1371 26.1618 15.0816 26.37 15.2676C26.2395 15.3121 26.109 15.3565 25.9785 15.3981Z" fill="white"/>
<path d="M15.6172 22.2317C15.7005 22.2733 15.781 22.3122 15.8643 22.3539C15.8254 22.4177 15.7866 22.4844 15.7449 22.5482C15.7033 22.4427 15.6588 22.3372 15.6172 22.2345V22.2317Z" fill="white"/>
<path d="M8.29688 23.8755C8.48014 23.7506 8.60509 23.8061 8.67729 24.006C8.54956 23.9616 8.4246 23.92 8.29688 23.8755Z" fill="white"/>
<path d="M19.4121 24.006C19.4399 23.7422 19.6426 23.8255 19.7981 23.8117C19.6703 23.8755 19.5398 23.9394 19.4121 24.006Z" fill="white"/>
<path d="M25.0371 15.7286C25.0677 15.6592 25.101 15.5898 25.1315 15.5231C25.1871 15.5648 25.2398 15.6064 25.2953 15.6481C25.2093 15.6759 25.1232 15.7036 25.0371 15.7314V15.7286Z" fill="white"/>
<path d="M15.8887 22.862C16.133 22.8898 16.2219 22.9814 16.0247 23.1897C15.9803 23.0814 15.9359 22.9703 15.8887 22.862Z" fill="white"/>
<path d="M15.3184 21.5986C15.5627 21.6264 15.6516 21.718 15.4544 21.9263C15.41 21.818 15.3656 21.7069 15.3184 21.5986Z" fill="white"/>
<path d="M23.2623 18.3776C23.3234 18.2721 23.1152 17.9999 23.4539 18.0694C23.3901 18.1721 23.3262 18.2748 23.2623 18.3776Z" fill="white"/>
<path d="M20.6133 20.4019C20.6605 20.2381 20.7049 20.0742 20.9298 20.2158C20.8243 20.2769 20.7188 20.3408 20.6133 20.4019Z" fill="white"/>
<path d="M4.56445 18.0027C4.89488 17.8778 4.71717 18.1555 4.76438 18.2554C4.69774 18.1721 4.63109 18.0888 4.56445 18.0027Z" fill="white"/>
<path d="M11.3926 24.0005C11.412 23.7839 11.5703 23.8116 11.7147 23.8116C11.6064 23.8755 11.4981 23.9366 11.3926 24.0005Z" fill="white"/>
<path d="M19.9766 20.6517C20.021 20.6739 20.0654 20.6962 20.1098 20.7184C20.0682 20.8017 20.0238 20.885 19.9821 20.9683L19.9766 20.6517Z" fill="white"/>
<path d="M24.3468 16.7366C24.3606 16.62 24.244 16.4145 24.5217 16.4783C24.4634 16.5644 24.4051 16.6505 24.3468 16.7366Z" fill="white"/>
<path d="M7.22461 20.2825C7.25238 20.2464 7.28014 20.2075 7.30791 20.1714C7.34401 20.2491 7.38011 20.3241 7.4162 20.4019C7.35234 20.363 7.28847 20.3213 7.22461 20.2825Z" fill="white"/>
<path d="M26.0453 10.0391C25.9593 9.99742 25.8732 9.95855 25.7871 9.9169C25.9565 9.77806 26.0148 9.8808 26.0453 10.0391Z" fill="white"/>
<path d="M6.15234 19.5799C6.34116 19.4355 6.33561 19.5799 6.34116 19.7076C6.2773 19.666 6.21621 19.6243 6.15234 19.5799Z" fill="white"/>
<path d="M24.694 16.0229C24.644 15.8813 24.5912 15.7397 24.8439 15.7952C24.7939 15.8702 24.744 15.9451 24.694 16.0229Z" fill="white"/>
<path d="M23.587 17.875C23.5814 17.8278 23.5759 17.7806 23.5703 17.7334C23.6175 17.7417 23.6647 17.7501 23.7119 17.7584C23.6703 17.7973 23.6286 17.8361 23.587 17.875Z" fill="white"/>
<path d="M24.1333 17.1142C24.1055 17.0753 24.0805 17.0392 24.0527 17.0004C24.1055 17.0004 24.1583 17.0004 24.2138 17.0004C24.186 17.0392 24.161 17.0781 24.1333 17.1142Z" fill="white"/>
<path d="M21.8744 1.4035C21.8383 1.4396 21.8022 1.4757 21.7661 1.50902C21.7383 1.47292 21.7133 1.43682 21.6855 1.4035C21.7494 1.4035 21.8105 1.4035 21.8744 1.4035Z" fill="white"/>
<path d="M22.0684 19.4633C22.1322 19.3967 22.1961 19.33 22.26 19.2662C22.1961 19.3328 22.1322 19.3995 22.0684 19.4633Z" fill="white"/>
<path d="M5.83398 19.3328C5.87841 19.3162 5.92006 19.2995 5.96449 19.2828C5.97282 19.3356 5.98393 19.3911 5.99226 19.4439C5.9395 19.405 5.88674 19.3689 5.83398 19.33V19.3328Z" fill="white"/>
<path d="M23.2486 7.01253C23.2097 6.97365 23.1736 6.93756 23.1348 6.89868L23.2486 7.01253Z" fill="white"/>
<path d="M7.79492 20.5768C7.82547 20.5518 7.85323 20.5296 7.88378 20.5046C7.88378 20.5462 7.87822 20.5907 7.87545 20.6323C7.84768 20.6129 7.81991 20.5934 7.79492 20.5768Z" fill="white"/>
<path d="M7.0918 20.2102C7.11401 20.2269 7.13622 20.2435 7.16121 20.263C7.139 20.2463 7.11679 20.2296 7.0918 20.2102Z" fill="white"/>
<path d="M20.291 19.38C20.5937 19.1828 20.8936 18.9885 21.1962 18.7913C21.1268 18.9163 21.0796 19.069 20.9796 19.1578C20.8269 19.2911 20.6381 19.3883 20.4576 19.4827C20.4271 19.4994 20.3493 19.4189 20.2938 19.3828L20.291 19.38Z" fill="white"/>
<path d="M15.627 20.263C15.9768 20.3352 16.1129 20.6184 16.2434 20.9016C15.9324 20.7906 15.7019 20.599 15.627 20.263Z" fill="white"/>
<path d="M6.98041 18.8802C7.25253 19.0524 7.52465 19.2245 7.79399 19.3967C7.77177 19.4272 7.7329 19.4883 7.73012 19.4855C7.48299 19.3439 7.23309 19.2051 6.99429 19.0496C6.96375 19.0302 6.98318 18.9385 6.97763 18.8774L6.98041 18.8802Z" fill="white"/>
<path d="M12.2148 20.5879C12.2648 20.3491 12.4175 20.2519 12.6563 20.2713C12.623 20.5351 12.487 20.6573 12.2148 20.5879Z" fill="white"/>
<path d="M23.8461 15.2843C23.835 14.9872 24.0793 14.9455 24.2737 14.8539C24.232 15.0955 24.0876 15.2398 23.8461 15.2843Z" fill="white"/>
<path d="M24.707 14.7123C24.857 14.654 25.0069 14.5957 25.1569 14.5402C25.0763 14.8484 24.9431 14.9011 24.707 14.7123Z" fill="white"/>
<path d="M25.7812 14.3346C25.9312 14.2763 26.0811 14.218 26.2311 14.1625C26.1506 14.4707 26.0173 14.5234 25.7812 14.3346Z" fill="white"/>
<path d="M8.24219 19.6382C8.42267 19.7132 8.60039 19.7854 8.78087 19.8604C8.60872 19.8437 8.43656 19.8298 8.26718 19.8021C8.25052 19.7993 8.25052 19.6966 8.24219 19.641V19.6382Z" fill="white"/>
<path d="M21.5566 18.4998C21.6622 18.3943 21.7677 18.2888 21.8704 18.1833C21.8676 18.5693 21.8371 18.5998 21.5566 18.4998Z" fill="white"/>
<path d="M11.0117 22.9203C11.0534 22.837 11.0922 22.7537 11.1339 22.6703C11.1533 22.7675 11.1755 22.8647 11.195 22.9619C11.1339 22.948 11.0728 22.9341 11.0117 22.9175V22.9203Z" fill="white"/>
<path d="M22.248 17.8084L22.5674 17.4918C22.5757 17.714 22.5951 17.9472 22.248 17.8084Z" fill="white"/>
<path d="M19.5371 19.7187C19.6621 19.6687 19.787 19.6188 19.912 19.5688C19.8703 19.6521 19.8453 19.7743 19.7787 19.8076C19.7259 19.8354 19.6204 19.7521 19.5371 19.7187Z" fill="white"/>
<path d="M23.1531 16.6116C23.142 16.4283 23.1004 16.2284 23.3891 16.2367C23.3891 16.2978 23.3891 16.3617 23.3891 16.4227C23.3475 16.4866 23.3058 16.5477 23.2642 16.6116C23.2281 16.6116 23.1892 16.6116 23.1531 16.6116Z" fill="white"/>
<path d="M5.52769 17.5557C5.61099 17.639 5.69152 17.7223 5.77482 17.8056C5.69152 17.7972 5.59156 17.8167 5.53325 17.7722C5.49715 17.7473 5.52769 17.6306 5.52769 17.5557Z" fill="white"/>
<path d="M16.8244 22.3539L17.0021 22.7371C16.6939 22.726 16.7355 22.551 16.8244 22.3539Z" fill="white"/>
<path d="M16.256 21.0904C16.3143 21.2181 16.3754 21.3459 16.4337 21.4736C16.1255 21.4625 16.1672 21.2875 16.256 21.0904Z" fill="white"/>
<path d="M23.4531 16.1673C23.5003 16.0757 23.5475 15.9841 23.5947 15.8952C23.7419 16.0785 23.7225 16.1173 23.4531 16.1673Z" fill="white"/>
<path d="M9.06641 20.1436C9.24134 20.1963 9.30798 20.2935 9.19136 20.4629C9.14971 20.3574 9.10806 20.2518 9.06641 20.1436Z" fill="white"/>
<path d="M16.5726 21.7874L16.7058 22.1012C16.4948 22.0679 16.4559 21.9596 16.5726 21.7874Z" fill="white"/>
<path d="M22.6883 17.3557C22.73 17.2946 22.7716 17.2363 22.8133 17.1752C22.8188 17.2419 22.8244 17.3085 22.8299 17.3752C22.7827 17.3668 22.7355 17.3613 22.6855 17.3529L22.6883 17.3557Z" fill="white"/>
<path d="M23.7207 15.6009C23.7568 15.5148 23.7901 15.4315 23.8262 15.3455C23.9512 15.4982 23.9234 15.5843 23.7207 15.6009Z" fill="white"/>
<path d="M6.35192 18.3748C6.39357 18.4165 6.43244 18.4553 6.47409 18.497C6.39912 18.4942 6.32692 18.4887 6.25195 18.4859C6.28527 18.4498 6.31859 18.4137 6.35192 18.3776V18.3748Z" fill="white"/>
<path d="M21.2109 18.7747L21.4275 18.6219C21.4359 18.7858 21.3775 18.8552 21.2109 18.7747Z" fill="white"/>
<path d="M18.9062 20.3352L18.9201 20.1353C19.0562 20.213 19.0701 20.2796 18.9062 20.3352Z" fill="white"/>
<path d="M1.10678 10.4299C1.10678 11.2512 1.11511 12.0725 1.10678 12.891C1.09569 13.7318 1.45085 14.2728 2.31656 14.431C2.63565 14.4893 2.77716 14.678 2.77439 15.0137C2.76606 16.365 2.77161 17.7191 2.77439 19.0703C2.77439 19.7834 3.15176 20.1664 3.85654 20.1664C4.79162 20.1691 5.72947 20.1719 6.66455 20.1747C7.03359 20.1747 7.1862 20.3079 7.21118 20.6464C7.23615 21.0099 7.10019 21.2208 6.74225 21.2291C5.58796 21.2485 4.42812 21.3345 3.27939 21.1958C2.37483 21.0876 1.6867 20.1442 1.6756 19.1203C1.66173 17.9993 1.66173 16.8783 1.67005 15.7573C1.67005 15.4826 1.58681 15.3578 1.32321 15.2218C0.507443 14.8 0.0329623 14.0925 0.0190887 13.163C-0.00865852 11.3844 -0.00310332 9.60298 0.0163197 7.82161C0.0274186 6.74224 0.604559 6.04856 1.6534 5.74334C1.88371 5.67675 2.1695 5.6379 2.31656 5.48252C2.49969 5.28551 2.2139 5.07186 2.15563 4.85821C1.74497 3.30436 2.48582 1.86151 3.9259 1.43697C5.12458 1.08458 6.52859 1.83931 6.9337 3.01856C7.19453 3.77884 7.15013 4.50859 6.83104 5.22725C6.74502 5.4187 6.80329 5.49084 6.97532 5.56576C7.28054 5.69617 7.50807 5.73224 7.71895 5.37431C7.92983 5.01637 8.33493 4.86653 8.71507 4.71947C8.93982 4.63345 9.17013 4.55854 9.4032 4.48917C9.64183 4.4198 9.73895 4.33933 9.60576 4.05631C9.2395 3.27661 9.25615 2.47194 9.56137 1.67282C9.96648 0.615652 11.0403 -0.0669285 12.1835 0.00521428C13.2961 0.0773571 14.2923 0.929196 14.5642 2.01134C14.7473 2.73277 14.7057 3.42922 14.3866 4.09793C14.2812 4.31991 14.3256 4.40592 14.5448 4.46974C14.7973 4.54466 15.047 4.63623 15.2967 4.71947C15.749 4.86653 16.1236 5.11348 16.4011 5.51304C16.537 5.70727 17.0975 5.65733 17.2168 5.45477C17.2806 5.34656 17.1863 5.28551 17.1502 5.20505C16.7757 4.32269 16.7923 3.45142 17.264 2.61345C17.7995 1.66727 18.8983 1.14563 19.9472 1.4009C20.9488 1.64508 21.6675 2.29991 21.9144 3.49027C22.0337 4.06463 21.9561 4.61958 21.7091 5.14123C21.5815 5.41037 21.6675 5.52137 21.9089 5.59906C22.2141 5.69895 22.5304 5.78219 22.8218 5.91538C23.5793 6.26222 23.9677 6.8893 23.9788 7.69952C24.0066 9.49199 24.0066 11.2845 23.9816 13.0742C23.9677 14.0925 23.5155 14.8694 22.5415 15.2745C22.3306 15.3633 22.3362 15.5242 22.3362 15.7018C22.3362 16.845 22.3362 17.991 22.3306 19.1342C22.3306 20.0803 21.7757 20.8517 20.885 21.1625C20.6852 21.2319 20.4771 21.2374 20.269 21.2402C19.3672 21.2485 18.4655 21.2513 17.5637 21.2457C17.3611 21.2457 17.1336 21.2762 16.9754 21.1098C16.8173 20.9433 16.7368 20.7435 16.8311 20.5076C16.9255 20.2718 17.1086 20.1802 17.3472 20.1775C18.2601 20.1719 19.173 20.1608 20.0859 20.1664C20.824 20.1691 21.2235 19.7973 21.2263 19.0537C21.2318 17.7718 21.2263 16.4871 21.2346 15.2051C21.2346 14.5586 21.2457 14.5531 21.8673 14.4199C22.4305 14.2978 22.88 13.7234 22.8856 13.0492C22.8995 11.2567 22.8939 9.46425 22.8856 7.67455C22.8856 7.20285 22.5304 6.99752 22.1614 6.84491C21.7702 6.6812 21.3456 6.59796 20.9627 6.40928C20.8018 6.32881 20.6714 6.4176 20.5382 6.47864C19.8056 6.81716 19.0731 6.87543 18.3461 6.47864C18.1242 6.35656 17.9272 6.41205 17.7163 6.47864C17.1021 6.67473 16.7914 7.08908 16.784 7.72172C16.7812 8.07966 16.7867 8.4376 16.784 8.79554C16.7784 9.16735 16.5703 9.41708 16.2734 9.41985C15.9488 9.4254 15.7102 9.18955 15.7018 8.80664C15.6852 8.12405 15.6935 7.44147 15.6824 6.76167C15.6741 6.24279 15.4493 5.92648 14.9527 5.75167C14.5614 5.61293 14.1674 5.49084 13.7734 5.3632C13.5042 5.27441 13.2795 5.29661 12.9965 5.4409C12.35 5.76831 11.6424 5.76832 10.9959 5.43535C10.7156 5.29106 10.4826 5.27719 10.2162 5.36043C9.80831 5.48529 9.4032 5.61848 9.00364 5.76554C8.53194 5.94035 8.31552 6.26499 8.31274 6.76444C8.30719 7.41095 8.30719 8.06024 8.30164 8.70675C8.30164 8.90375 8.30719 9.11463 8.12961 9.24782C7.96312 9.37268 7.77166 9.48367 7.55246 9.38933C7.34436 9.30054 7.22227 9.12295 7.2195 8.90098C7.2084 8.31274 7.20562 7.72172 7.21394 7.13348C7.21672 6.89763 7.17787 6.72004 6.89485 6.7034C6.82826 6.70062 6.76445 6.66178 6.70063 6.63126C6.25945 6.4176 5.84324 6.33991 5.36321 6.59241C4.78607 6.89485 4.17008 6.79219 3.59571 6.52859C3.30991 6.39818 3.05186 6.39818 2.76606 6.51472C2.42477 6.65345 2.06961 6.75612 1.72554 6.89208C1.31211 7.05856 1.09291 7.35823 1.10123 7.82716C1.1151 8.69287 1.10401 9.56136 1.10678 10.4271V10.4299ZM11.9726 1.10123C11.9032 1.10955 11.8089 1.11233 11.7201 1.13175C10.7184 1.35928 10.1579 2.40813 10.5159 3.42368C10.8488 4.37263 11.9643 5.03579 12.9743 4.18117C13.1546 4.02856 13.2712 3.82601 13.3822 3.62623C13.6985 3.06574 13.6458 2.49137 13.3627 1.94475C13.0825 1.4009 12.6136 1.11788 11.9698 1.09846L11.9726 1.10123ZM20.8822 4.03134C20.8684 3.69282 20.7879 3.38206 20.6075 3.10736C20.2246 2.51912 19.3312 2.26384 18.8123 2.58848C17.966 3.11568 17.7357 4.12291 18.2657 4.96642C18.7901 5.80161 19.703 5.90983 20.3994 5.21614C20.7296 4.88595 20.8184 4.46142 20.8822 4.03134ZM3.12123 3.99249C3.08793 4.83046 3.80104 5.65178 4.58351 5.67398C5.28829 5.6934 5.98752 4.88318 6.02636 4.00359C6.05966 3.25442 5.37153 2.44974 4.6501 2.44419C3.95642 2.43864 3.17395 2.92977 3.11846 3.99249H3.12123Z" fill="white"/>
<path d="M18.5657 14.0231C18.5296 15.4965 18.0274 16.7701 17.0424 17.8356C15.6689 19.3228 14.2066 20.713 12.5279 21.8645C12.1422 22.1281 11.8481 22.1253 11.4763 21.8617C9.7754 20.6658 8.26039 19.2701 6.87026 17.7302C6.13773 16.9172 5.69933 15.9627 5.51342 14.9055C5.12219 12.6718 6.17103 10.6463 8.61556 10.0192C9.7532 9.72786 10.8131 9.96648 11.7399 10.7046C11.9092 10.8405 12.0312 10.8766 12.2144 10.724C14.362 8.94261 17.8942 10.3189 18.4464 13.0159C18.5158 13.3544 18.5907 13.6902 18.5629 14.0231H18.5657ZM9.44798 11.0153C8.47683 11.0597 7.66106 11.4343 7.08392 12.2334C6.49845 13.0437 6.42076 13.9649 6.62331 14.911C6.85639 15.9876 7.43353 16.8728 8.22155 17.6386C9.32311 18.7096 10.4441 19.7585 11.6816 20.6797C11.9147 20.8517 12.0784 20.8545 12.317 20.6797C13.6711 19.6863 14.9003 18.5515 16.0712 17.3556C16.8537 16.5592 17.3448 15.5742 17.4475 14.4393C17.5918 12.8522 16.8926 11.623 15.2971 11.1235C14.6478 10.921 13.9791 10.9515 13.352 11.3011C12.9941 11.5009 12.6778 11.7451 12.4003 12.042C12.1755 12.2806 11.9369 12.2723 11.6872 12.1086C11.5734 12.0337 11.4735 11.931 11.3709 11.8394C10.8242 11.3483 10.2332 10.9682 9.44798 11.0209V11.0153Z" fill="white"/>
</svg>
