<svg width="231" height="61" viewBox="0 0 231 61" fill="none" xmlns="http://www.w3.org/2000/svg">
<path d="M32.9631 16.2C31.9498 14.92 30.5631 13.9867 28.8031 13.4C27.0965 12.76 25.4698 12.44 23.9231 12.44C23.0165 12.44 22.0831 12.5467 21.1231 12.76C20.1631 12.9733 19.2565 13.32 18.4031 13.8C17.5498 14.2267 16.8565 14.8133 16.3231 15.56C15.7898 16.3067 15.5231 17.2133 15.5231 18.28C15.5231 19.9867 16.1631 21.2933 17.4431 22.2C18.7231 23.1067 20.3231 23.88 22.2431 24.52C24.2165 25.16 26.3231 25.8 28.5631 26.44C30.8031 27.08 32.8831 27.9867 34.8031 29.16C36.7765 30.3333 38.4031 31.9067 39.6831 33.88C40.9631 35.8533 41.6031 38.4933 41.6031 41.8C41.6031 44.9467 41.0165 47.6933 39.8431 50.04C38.6698 52.3867 37.0698 54.3333 35.0431 55.88C33.0698 57.4267 30.7498 58.5733 28.0831 59.32C25.4698 60.0667 22.6965 60.44 19.7631 60.44C16.0831 60.44 12.6698 59.88 9.52313 58.76C6.37646 57.64 3.44313 55.8267 0.723125 53.32L9.60313 43.56C10.8831 45.2667 12.4831 46.6 14.4031 47.56C16.3765 48.4667 18.4031 48.92 20.4831 48.92C21.4965 48.92 22.5098 48.8133 23.5231 48.6C24.5898 48.3333 25.5231 47.96 26.3231 47.48C27.1765 47 27.8431 46.3867 28.3231 45.64C28.8565 44.8933 29.1231 44.0133 29.1231 43C29.1231 41.2933 28.4565 39.96 27.1231 39C25.8431 37.9867 24.2165 37.1333 22.2431 36.44C20.2698 35.7467 18.1365 35.0533 15.8431 34.36C13.5498 33.6667 11.4165 32.7333 9.44313 31.56C7.46979 30.3867 5.81646 28.84 4.48312 26.92C3.20313 25 2.56313 22.4667 2.56313 19.32C2.56313 16.28 3.14979 13.6133 4.32313 11.32C5.54979 9.02666 7.14979 7.10666 9.12313 5.56C11.1498 4.01333 13.4698 2.86666 16.0831 2.12C18.6965 1.32 21.3898 0.919999 24.1631 0.919999C27.3631 0.919999 30.4565 1.37333 33.4431 2.28C36.4298 3.18666 39.1231 4.70666 41.5231 6.84L32.9631 16.2ZM44.9806 2.36H58.5806L67.6206 38.68H67.7806L79.6206 2.36H91.2206L102.981 39.64H103.141L112.661 2.36H125.301L108.741 59H97.6206L85.1406 19.8H84.9806L72.5006 59H61.7806L44.9806 2.36ZM147.509 2.36H157.829L182.469 59H168.389L163.509 47H141.509L136.789 59H123.029L147.509 2.36ZM152.309 18.84L145.429 36.44H159.269L152.309 18.84ZM188.166 2.36H209.206C212.14 2.36 214.913 2.62667 217.526 3.16C220.14 3.69333 222.406 4.62666 224.326 5.96C226.3 7.24 227.846 9 228.966 11.24C230.14 13.4267 230.726 16.2 230.726 19.56C230.726 22.8667 230.193 25.64 229.126 27.88C228.06 30.12 226.593 31.9067 224.726 33.24C222.86 34.5733 220.646 35.5333 218.086 36.12C215.526 36.6533 212.753 36.92 209.766 36.92H200.646V59H188.166V2.36ZM200.646 26.36H208.966C210.086 26.36 211.153 26.2533 212.166 26.04C213.233 25.8267 214.166 25.48 214.966 25C215.82 24.4667 216.486 23.7733 216.966 22.92C217.5 22.0133 217.766 20.8933 217.766 19.56C217.766 18.12 217.42 16.9733 216.726 16.12C216.086 15.2133 215.233 14.52 214.166 14.04C213.153 13.56 212.006 13.2667 210.726 13.16C209.446 13 208.22 12.92 207.046 12.92H200.646V26.36Z" fill="white"/>
</svg>
