<svg width="76" height="76" viewBox="0 0 76 76" fill="none" xmlns="http://www.w3.org/2000/svg">
<circle cx="38" cy="38" r="38" fill="#F652C5"/>
<path d="M54 35.9566H60V40.1479H54V35.9566ZM16 35.9566H22V40.1479H16V35.9566ZM40 15V21.287H36V15H40ZM23.84 20.2391L28.1 24.7239L25.26 27.6787L21 23.2359L23.84 20.2391ZM47.9 24.7029L52.14 20.2391L55 23.2359L50.74 27.6787L47.9 24.7029ZM38 25.4783C41.1826 25.4783 44.2348 26.803 46.4853 29.1611C48.7357 31.5192 50 34.7174 50 38.0522C50 42.7046 47.58 46.7702 44 48.9497V52.7219C44 53.2777 43.7893 53.8107 43.4142 54.2037C43.0391 54.5967 42.5304 54.8175 42 54.8175H34C33.4696 54.8175 32.9609 54.5967 32.5858 54.2037C32.2107 53.8107 32 53.2777 32 52.7219V48.9497C28.42 46.7702 26 42.7046 26 38.0522C26 34.7174 27.2643 31.5192 29.5147 29.1611C31.7652 26.803 34.8174 25.4783 38 25.4783ZM42 56.9132V59.0088C42 59.5646 41.7893 60.0977 41.4142 60.4907C41.0391 60.8837 40.5304 61.1045 40 61.1045H36C35.4696 61.1045 34.9609 60.8837 34.5858 60.4907C34.2107 60.0977 34 59.5646 34 59.0088V56.9132H42ZM36 50.6262H40V46.1624C43.46 45.2404 46 41.9502 46 38.0522C46 35.829 45.1571 33.6969 43.6569 32.1248C42.1566 30.5528 40.1217 29.6696 38 29.6696C35.8783 29.6696 33.8434 30.5528 32.3431 32.1248C30.8429 33.6969 30 35.829 30 38.0522C30 41.9502 32.54 45.2404 36 46.1624V50.6262Z" fill="white"/>
</svg>
