<svg width="22" height="28" viewBox="0 0 22 28" fill="none" xmlns="http://www.w3.org/2000/svg">
<path d="M9.52662 0.806327C8.19921 0.750893 6.91094 0.957228 5.70995 1.53312C3.37721 2.6541 1.76085 4.45877 1.0234 7.00562C0.659192 8.26519 0.665212 9.56172 0.875911 10.8644C1.07156 12.0531 1.31537 13.2265 1.68861 14.369C2.1371 15.7425 2.72103 17.0575 3.43139 18.3109C3.9461 19.2194 4.15379 20.208 4.1267 21.2612C4.0966 22.4869 3.83473 23.6695 3.55781 24.849C3.35012 25.7298 3.14243 26.6075 2.92872 27.4852C2.90464 27.5806 2.86551 27.673 2.82036 27.7623C2.72103 27.9533 2.57354 28.0487 2.35983 27.9625C2.16118 27.8855 2.14011 27.7131 2.16419 27.5375C2.24847 26.9278 2.43207 26.3395 2.58257 25.7452C2.8926 24.5164 3.20564 23.2876 3.35614 22.025C3.50664 20.7623 3.33507 19.5736 2.69695 18.4526C1.77289 16.8266 1.07457 15.0989 0.620062 13.2758C0.294983 11.9792 0.039134 10.6642 0.00301416 9.31227C-0.0481556 7.33206 0.553842 5.57052 1.68259 3.98758C3.03407 2.09053 4.84609 0.864839 7.05542 0.270471C8.00657 0.0117818 8.98783 -0.0467312 9.9721 0.0333392C10.6102 0.0856929 11.2483 0.141126 11.8804 0.233515C13.4938 0.467567 14.9867 1.02498 16.3472 1.96427C17.4128 2.7003 18.3098 3.59339 18.975 4.71746C19.5318 5.65982 19.8358 6.69766 19.9954 7.78477C20.1037 8.50848 19.9984 9.21372 19.875 9.92203C19.7004 10.9106 20.0495 11.6836 20.8171 12.281C21.1091 12.5058 21.401 12.7307 21.6448 13.0109C22.292 13.7469 22.012 15.0404 21.1181 15.4253C20.9706 15.49 20.8201 15.5424 20.6696 15.6009C20.2994 15.7395 20.176 16.0043 20.3054 16.4016C20.4077 16.7219 20.501 17.0391 20.5311 17.3778C20.5853 17.9999 20.3084 18.2771 19.8027 18.5512C19.6643 18.6281 19.4174 18.622 19.3873 18.7483C19.3542 18.8868 19.589 18.9638 19.6944 19.0839C20.1188 19.5613 20.1729 19.977 19.878 20.5745C19.8087 20.7161 19.8057 20.867 19.8117 21.0241C19.8298 21.4583 19.9231 21.8956 19.8117 22.3299C19.583 23.226 18.9659 23.6787 18.1171 23.8635C17.765 23.9405 17.4098 23.9251 17.0516 23.9282C16.3683 23.9344 15.6851 23.9097 15.0018 24.0452C13.9393 24.2577 13.3463 24.9568 12.9791 25.9361C12.7684 26.4997 12.666 27.0879 12.5637 27.6792C12.5125 27.9748 12.3379 27.9902 12.1182 27.9718C11.9015 27.9533 11.8293 27.8147 11.8563 27.6114C12.0068 26.4289 12.2597 25.2802 13.0393 24.3378C13.6443 23.611 14.451 23.3 15.36 23.2106C16.1245 23.1367 16.8921 23.1922 17.6566 23.1521C18.2375 23.1213 18.7613 22.9335 19.0352 22.3391C19.1977 21.9849 19.1526 21.6031 19.1164 21.2366C19.0773 20.8701 19.1405 20.5314 19.2579 20.1957C19.3813 19.8477 19.3181 19.5921 19.0171 19.3919C18.7793 19.2348 18.5777 19.0285 18.3037 18.9207C18.1382 18.853 18.0359 18.6774 18.075 18.4988C18.1141 18.314 18.2134 18.1477 18.4392 18.12C18.8094 18.0738 19.1766 18.0061 19.5198 17.8459C19.7576 17.7351 19.8569 17.5718 19.7816 17.3039C19.7004 17.0083 19.6281 16.7095 19.5589 16.4077C19.4114 15.7826 19.7124 15.1882 20.2933 14.9511C20.4168 14.9018 20.5402 14.8464 20.6696 14.8156C21.0428 14.7232 21.2114 14.4583 21.2626 14.0949C21.3107 13.7439 21.1512 13.4913 20.8803 13.2881C20.3987 12.9278 19.9321 12.5459 19.586 12.0377C19.1044 11.3325 18.978 10.5503 19.1465 9.72494C19.5619 7.69854 19.0111 5.92467 17.8071 4.3325C16.9191 3.15916 15.7994 2.27531 14.4389 1.73637C12.9189 1.13585 11.3477 0.77553 9.70722 0.812486C9.64401 0.812486 9.58381 0.812486 9.5206 0.812486L9.52662 0.806327Z" fill="white"/>
<path d="M12.1693 12.8598C11.4981 12.8906 10.869 12.7797 10.2971 12.4132C10.2158 12.3609 10.1496 12.3824 10.0744 12.4194C9.05397 12.9214 7.97941 12.9922 6.89882 12.7366C6.12827 12.5549 5.46908 12.1053 4.86708 11.5848C4.21993 11.0212 3.72027 10.3437 3.37413 9.54916C3.08216 8.8778 3.1243 8.74538 3.85271 8.47129C4.28314 8.30807 4.74367 8.19721 5.21624 8.14177C5.84533 8.06786 6.43227 8.19721 7.02524 8.36351C8.3677 8.7423 9.31885 9.62307 10.0473 10.7964C10.1526 10.9689 10.2008 10.9412 10.2941 10.7903C10.9081 9.78322 11.7208 8.97943 12.8014 8.53904C13.6502 8.19413 14.5442 8.01859 15.4773 8.18797C15.9228 8.26804 16.3622 8.35735 16.7686 8.55752C17.0605 8.70227 17.2502 8.88088 17.0666 9.29663C16.907 9.66311 16.7294 10.0173 16.5308 10.3622C15.8355 11.5848 14.7579 12.2931 13.4787 12.7181C13.0542 12.8598 12.6058 12.8782 12.1693 12.8567V12.8598ZM14.788 8.84701C12.9639 8.83161 11.4168 10.0881 10.7396 11.5324C10.6703 11.6803 10.6673 11.8035 10.8329 11.865C11.3024 12.0375 11.787 12.1607 12.2897 12.1361C13.7496 12.0652 14.9054 11.3969 15.7963 10.2298C16.007 9.9526 16.2087 9.66311 16.2779 9.29971C16.305 9.16421 16.2629 9.13649 16.1636 9.07798C15.697 8.79773 15.1823 8.87472 14.788 8.84393V8.84701ZM8.08777 12.1361C8.45499 12.1299 8.81618 12.0868 9.16835 11.979C9.74928 11.8065 9.74928 11.8096 9.46032 11.2738C9.41216 11.1875 9.36701 11.0982 9.31283 11.0151C8.71987 10.0789 7.90115 9.42598 6.88076 9.0595C6.01088 8.74846 5.11992 8.74538 4.24401 9.08414C4.06943 9.15189 4.03331 9.2412 4.11458 9.41058C4.26508 9.72162 4.44869 10.0142 4.65638 10.2852C5.52928 11.4277 6.64598 12.0929 8.08777 12.133V12.1361Z" fill="white"/>
<path d="M8.37682 6.6512C8.17515 7.0454 7.9494 7.10391 7.60626 6.86986C7.22099 6.60809 6.82668 6.36788 6.36615 6.26317C5.99893 6.18002 5.92368 6.25701 6.00495 6.62349C6.06816 6.90681 6.13739 7.18706 6.17953 7.47346C6.20662 7.64592 6.20361 7.8307 5.9598 7.8615C5.75211 7.88922 5.5986 7.89537 5.52636 7.61205C5.38489 7.05464 5.2675 6.5003 5.28255 5.92441C5.29158 5.56717 5.3879 5.45323 5.74609 5.43783C6.23672 5.41627 6.69424 5.56717 7.13972 5.75503C7.5581 5.93365 7.95843 6.1523 8.28953 6.47874C8.41294 6.60193 8.41294 6.46951 8.42799 6.40175C8.5213 6.01372 8.5514 5.61645 8.69287 5.23765C8.96678 4.50778 9.3039 3.8241 9.8156 3.23589C10.0714 2.94025 10.2671 2.94025 10.5199 3.23589C11.2453 4.08895 11.6517 5.08675 11.8654 6.18926C12.0279 7.0146 11.9948 7.82762 11.9196 8.65296C11.8985 8.8747 11.7691 8.90241 11.6156 8.91165C11.447 8.92089 11.2935 8.87778 11.2393 8.68376C11.2032 8.5575 11.2152 8.43123 11.2303 8.30496C11.3928 6.8175 11.1009 5.43167 10.3243 4.1567C10.2039 3.95653 10.1316 3.95961 10.0143 4.1567C9.23467 5.42243 8.98484 6.81134 9.09621 8.28341C9.10223 8.37272 9.09922 8.46511 9.10524 8.55442C9.1233 8.82542 8.97581 8.91165 8.73802 8.92705C8.48518 8.94245 8.41595 8.78231 8.38585 8.57905C8.28652 7.95389 8.32565 7.32872 8.37381 6.65428L8.37682 6.6512Z" fill="white"/>
<path d="M15.0738 6.19234C15.1069 6.62041 15.0016 7.03308 14.9053 7.44575C14.8782 7.5597 14.839 7.67057 14.7608 7.76295C14.6434 7.90154 14.4989 7.9077 14.3484 7.85842C14.2009 7.80915 14.1437 7.68596 14.1648 7.53506C14.207 7.2579 14.2551 6.98381 14.3063 6.70664C14.3875 6.25394 14.3394 6.20158 13.906 6.29089C13.4695 6.3802 13.0993 6.61425 12.7351 6.85754C12.6086 6.94069 12.4913 7.03308 12.3197 6.98689C12.0066 6.90066 11.9404 6.7282 12.127 6.44795C12.1481 6.41716 12.1692 6.38636 12.1963 6.3648C12.9518 5.75812 13.7795 5.37624 14.7698 5.46555C14.9865 5.48403 15.0979 5.57334 15.0768 5.80739C15.0648 5.93365 15.0768 6.063 15.0768 6.19234H15.0738Z" fill="white"/>
</svg>
